<?xml version="1.0" encoding="utf-8"?>
<!-- Generator: Adobe Illustrator 23.0.1, SVG Export Plug-In . SVG Version: 6.00 Build 0)  -->
<svg version="1.1" id="Layer_1" xmlns="http://www.w3.org/2000/svg" xmlns:xlink="http://www.w3.org/1999/xlink" x="0px" y="0px"
	 width="39.3px" height="40px" viewBox="0 0 39.3 40" style="enable-background:new 0 0 39.3 40;" xml:space="preserve">
<style type="text/css">
	.st0{fill:#B7674A;}
	.st1{fill:#023C80;}
	.st2{fill:#0B58B1;}
	.st3{fill:#BECFFC;}
	.st4{fill:#93A5D6;}
</style>
<g>
	<path class="st0" d="M18.4,37.7C8.2,37.7,0,29.2,0,18.8S8.2,0,18.4,0c10.1,0,18.4,8.5,18.4,18.8S28.5,37.7,18.4,37.7z M18.4,1.2
		C8.9,1.2,1.2,9.1,1.2,18.8s7.7,17.6,17.1,17.6s17.1-7.9,17.1-17.6C35.4,9.1,27.8,1.2,18.4,1.2z"/>
	<path class="st0" d="M18.4,37.3c-10,0-18.1-8.3-18.1-18.5S8.4,0.3,18.4,0.3s18,8.3,18,18.5S28.3,37.3,18.4,37.3z M18.4,0.9
		c-9.6,0-17.4,8-17.4,17.9s7.8,17.9,17.4,17.9s17.4-8,17.4-17.9S27.9,0.9,18.4,0.9z"/>
	<g id="planet-earth" transform="translate(60.191 60.191)">
		<circle id="Ellipse_16" class="st1" cx="-41.7" cy="-41.4" r="10"/>
		<g id="Group_241" transform="translate(75.362)">
			<path id="Path_1597" class="st2" d="M-117.1-51.5c-1.4,0-2.7,0.3-3.9,0.8c0,0.3-0.3,0.9-0.3,1.1c0,0,2.6-2.6,2.3-0.8
				c-0.2,1.1-2.3,1.1-2.2,2.2c2.1,0.9,2.9-1.6,4.7-1.6c0.6,0,2.2-1,2.5-0.8c1.2,0.8-0.3,3.6-1.2,2.7c-0.9-0.9-2.1,0.3-2.1,1.7
				c0.5,0,0.7-1.3,1.1-0.9c0.4,0.5,0.3,1.5-0.3,1.7c-0.6,0.2-3.1-1.7-2.5-0.2c0.7,1.6-2,2.8,0.7,2.2c1.3-0.3,0.9,0.7,1.5,1.1
				c0.7,0.6,0.4-0.8,0.9-0.6c0.8,0.3-0.1,1.1,1.1,0.5c1.4-0.6,0.9,0.4,1.3,1c0.8,1.2,2.8,2.4,3.8,0.8c0.3-0.4,0.1-3.4,1.6-1.4
				c1,1.3,0.6-1.5,0.8-2.3C-108.6-48.4-112.6-51.5-117.1-51.5z"/>
		</g>
		<path id="Path_1598" class="st3" d="M-40.4-36.9l-1.9-1.4l-1.3,0l-1.3-0.4l-1-0.7l-2.3,0.5l-0.9,0.4l-1,1.4l0.4,1.7
			c0.1,0.1,0.2,0.3,0.3,0.4l1.9,0.9l1.3,0.2l0.8,1.6l0,0.1c1.1,0.4,2.3,0.7,3.6,0.7c0.9,0,1.7-0.1,2.5-0.3l0.3-1.6l1.2-1l0.5-1.6
			h-2.5L-40.4-36.9z"/>
		<path class="st4" d="M-39.9-33.4c-0.6,0.1-1.3,0.1-1.9,0c-0.3-0.1-0.7-0.2-0.9-0.4c-0.3-0.2-0.6-0.4-0.9-0.8
			c-0.2-0.3-0.3-0.7-0.4-1c-0.1-0.1-0.3-0.8-0.4-0.9l-1.4-0.2l-2-1c-0.1-0.1-0.2-0.3-0.3-0.4l-0.1-0.7l-0.7,0.3l-1,1.4l0.4,1.7
			c0.1,0.1,0.2,0.3,0.3,0.4l1.9,0.9l1.3,0.2l0.8,1.6l0,0.1c1.1,0.4,2.3,0.7,3.6,0.7c0.9,0,1.7-0.1,2.5-0.3l0.3-1.6l1-0.8
			C-38.7-33.7-39.3-33.5-39.9-33.4z"/>
		<path class="st2" d="M-40.8-32.2c-0.5,0-1.1,0-1.6-0.1c-0.6-0.1-0.9-0.2-1.4-0.6c-0.1-0.1-0.1-0.2-0.3-0.3
			c-0.1-0.1-0.2-0.2-0.3-0.3c0,0-0.1-0.1-0.1-0.2s-0.1-0.1-0.1-0.2c-0.1-0.3-0.3-0.6-0.4-0.8c-0.1-0.1-0.1-0.3-0.2-0.4
			c0,0,0-0.1-0.1-0.1c-0.1,0-0.1,0-0.2,0c-0.1,0-0.3,0-0.5-0.1c-0.2,0-0.4,0-0.6-0.1c-0.2-0.1-0.4-0.1-0.6-0.3
			c-0.3-0.1-0.5-0.3-0.8-0.4c-0.1-0.1-0.3-0.1-0.4-0.2c-0.1,0-0.2-0.1-0.3-0.1c-0.1-0.1-0.2-0.1-0.3-0.2c-0.1-0.1-0.2-0.2-0.2-0.3
			c0-0.1-0.1-0.3-0.1-0.5c0-0.1,0-0.1,0-0.2c0-0.1,0-0.3,0.1-0.3c0,0,0-0.1,0.1-0.1l0-0.1c0,0-0.3,0.4-0.3,0.4c0,0,0,0-0.1,0.1
			s-0.1,0.1-0.1,0.1c-0.1,0.1-0.1,0.2-0.3,0.3c0,0-0.1,0.1-0.1,0.1s-0.1,0.1-0.1,0.1c0,0,0,0.1,0,0.1c0,0.1,0,0.1,0,0.2
			c0.1,0.3,0.1,0.5,0.2,0.8c0,0.1,0,0.2,0.1,0.3s0.1,0.2,0.1,0.3c0,0,0.1,0.1,0.1,0.1s0.1,0.1,0.1,0.1s0.1,0.1,0.2,0.1
			c0.1,0,0.1,0.1,0.2,0.1c0.3,0.1,0.5,0.2,0.7,0.3s0.5,0.2,0.7,0.3c0,0,0.1,0,0.1,0c0.1,0,0.1,0,0.2,0c0.1,0,0.3,0,0.4,0.1
			c0.1,0,0.3,0,0.4,0c0.1,0,0.1,0,0.2,0c0,0,0.1,0,0.1,0.1c0,0.1,0.1,0.2,0.2,0.4c0.1,0.1,0.1,0.3,0.2,0.4c0.1,0.3,0.2,0.5,0.4,0.7
			c0,0,0,0.1,0.1,0.1c0,0,0,0,0,0.1s0,0,0,0.1c0.1,0,0.2,0.1,0.3,0.1c1,0.3,2.1,0.5,3.2,0.5c0.6,0,1.1,0,1.6-0.1
			c0.3,0,0.6-0.1,0.8-0.1c0,0,0,0,0,0s0,0,0-0.1c0-0.1,0-0.1,0-0.2c0-0.1,0-0.3,0.1-0.4c0-0.1,0-0.1,0-0.2c0,0,0,0,0-0.1s0,0,0-0.1
			c-0.1,0-0.1,0-0.2,0c-0.1,0-0.1,0-0.2,0c-0.3,0-0.6,0.3-0.9,0.3c-0.1,0-0.2,0-0.3,0C-40.7-32.3-40.8-32.2-40.8-32.2z"/>
		<path id="Path_1599" class="st2" d="M-51.6-39.8C-51.6-39.8-51.6-39.8-51.6-39.8c0.5-0.4,0.9-0.5,1.3-1.2c0.4-0.7-0.1-0.7,0-1.8
			c0.1-1.1-0.1-0.6,0-1.8c0-0.4,0-0.7-0.6-0.9C-51.7-43.7-51.9-41.7-51.6-39.8z"/>
		<path id="Path_1602" class="st4" d="M-37.9-50.7c-0.1,1.3-0.1,2.2-0.1,2.2l-1.9,1.9c0,0,1.8,2.6,1.9,2.9c0.4,1,1.6,0.8,1.9,0.5
			c0.3-0.3,1.4-1.1,1.9-0.5c0.3,0.5,0.3,0.6,0.4,1c0.1,0,0.6,0.2,0.8,0.4c0.2,0.3,0.4,0.8,0.9,0.4c0.1-0.6,0-1.7,0.1-2.1
			C-32.9-47.1-35-49.5-37.9-50.7z"/>
		<path id="Path_1603" class="st3" d="M-36.7-50.1c-0.1,1.2-0.1,2.1-0.1,2.1l-1.4,1.4c0,0,1.3,1.9,1.4,2.1c0.1,0.2,1.2,0.5,1.4,0.3
			c0.2-0.1,1-0.8,1.4-0.3c0.3,0.5,0.9,1.6,1.4,1.7c0.5,0.1,0.4-0.4,0.6-0.4c0-0.4,0-0.7,0-0.9C-32.7-46.7-34.4-48.8-36.7-50.1z"/>
	</g>
	<ellipse id="Ellipse_13_6_" class="st0" cx="35.9" cy="21.5" rx="3.4" ry="3.4"/>
	<ellipse id="Ellipse_13_5_" class="st0" cx="19.9" cy="36.6" rx="3.4" ry="3.4"/>
	<ellipse id="Ellipse_15_2_" class="st0" cx="7.7" cy="3.8" rx="2.6" ry="2.6"/>
</g>
</svg>
