<?xml version="1.0" encoding="utf-8"?>
<!-- Generator: Adobe Illustrator 23.0.1, SVG Export Plug-In . SVG Version: 6.00 Build 0)  -->
<svg version="1.1" id="Group_968" xmlns="http://www.w3.org/2000/svg" xmlns:xlink="http://www.w3.org/1999/xlink" x="0px" y="0px"
	 viewBox="0 0 241.9 40.6" style="enable-background:new 0 0 241.9 40.6;" xml:space="preserve">
<style type="text/css">
	.st0{fill:#03A5ED;}
	.st1{fill:none;stroke:#03A5ED;stroke-miterlimit:10;}
	.st2{fill:#B5C0F1;}
	.st3{fill:#535974;}
	.st4{enable-background:new    ;}
</style>
<ellipse id="Ellipse_1" class="st0" cx="45.4" cy="39" rx="1.6" ry="1.6"/>
<ellipse id="Ellipse_2" class="st0" cx="1.6" cy="38.9" rx="1.6" ry="1.6"/>
<ellipse id="Ellipse_3" class="st0" cx="23.6" cy="1.6" rx="1.6" ry="1.6"/>
<path id="Path_1" class="st1" d="M1.6,38.8l43.9,0.1L23.6,1.3L1.6,38.8z"/>
<path id="Path_2" class="st0" d="M12.6,32.6l21.9,0.1L23.6,13.8L12.6,32.6z"/>
<path id="Path_3" class="st2" d="M23.5,32.6h11L23.6,13.8L23.5,32.6z"/>
<path id="Path_4" class="st3" d="M12.6,32.6l21.9,0.1l-11-4.8L12.6,32.6z"/>
<g class="st4">
	<path class="st2" d="M66.5,22.8h-5.2v7.4h-1.5V12.4h5.8c1.9,0,3.4,0.5,4.4,1.4c1.1,0.9,1.6,2.2,1.6,3.9c0,1.1-0.3,2.1-1,3
		c-0.7,0.9-1.6,1.5-2.7,1.8l4.4,7.6v0.2h-1.6L66.5,22.8z M61.3,21.5h4.6c1.3,0,2.3-0.4,3-1.1c0.8-0.7,1.1-1.6,1.1-2.8
		c0-1.3-0.4-2.2-1.2-2.9c-0.8-0.7-1.9-1-3.4-1h-4.2V21.5z"/>
	<path class="st2" d="M91.4,22.3c0,1.6-0.3,3.1-0.8,4.3c-0.6,1.2-1.4,2.2-2.4,2.9s-2.3,1-3.6,1c-2.1,0-3.8-0.7-5-2.2
		c-1.3-1.5-1.9-3.5-1.9-6v-1.8c0-1.6,0.3-3.1,0.9-4.3c0.6-1.3,1.4-2.2,2.4-2.9c1.1-0.7,2.3-1,3.6-1s2.6,0.3,3.6,1s1.9,1.6,2.4,2.8
		c0.6,1.2,0.9,2.6,0.9,4.2V22.3z M89.9,20.4c0-2.1-0.5-3.8-1.5-5c-1-1.2-2.3-1.8-4-1.8c-1.7,0-3,0.6-4,1.8c-1,1.2-1.5,2.9-1.5,5.1
		v1.9c0,2.1,0.5,3.8,1.5,5c1,1.2,2.3,1.9,4,1.9c1.7,0,3-0.6,4-1.8c1-1.2,1.4-2.9,1.4-5.1V20.4z"/>
	<path class="st2" d="M97.7,30.2V12.4h5.3c1.9,0,3.4,0.4,4.3,1.2c1,0.8,1.5,1.9,1.5,3.5c0,0.9-0.3,1.7-0.8,2.4
		c-0.5,0.7-1.2,1.2-2.1,1.5c1,0.2,1.9,0.7,2.5,1.5c0.6,0.8,0.9,1.7,0.9,2.7c0,1.6-0.5,2.8-1.5,3.7s-2.4,1.3-4.2,1.3H97.7z
		 M99.2,20.4h4.1c1.3,0,2.2-0.3,2.9-0.9c0.7-0.6,1-1.4,1-2.5c0-1.1-0.4-2-1.1-2.5s-1.8-0.8-3.2-0.8h-3.8V20.4z M99.2,21.7V29h4.5
		c1.3,0,2.3-0.3,3.1-1c0.8-0.7,1.1-1.6,1.1-2.7c0-1.1-0.4-2-1.1-2.6s-1.7-1-3-1H99.2z"/>
	<path class="st2" d="M128.7,22.3c0,1.6-0.3,3.1-0.8,4.3c-0.6,1.2-1.4,2.2-2.4,2.9s-2.3,1-3.6,1c-2.1,0-3.8-0.7-5-2.2
		c-1.3-1.5-1.9-3.5-1.9-6v-1.8c0-1.6,0.3-3.1,0.9-4.3c0.6-1.3,1.4-2.2,2.4-2.9c1.1-0.7,2.3-1,3.6-1s2.6,0.3,3.6,1s1.9,1.6,2.4,2.8
		c0.6,1.2,0.9,2.6,0.9,4.2V22.3z M127.2,20.4c0-2.1-0.5-3.8-1.5-5c-1-1.2-2.3-1.8-4-1.8c-1.7,0-3,0.6-4,1.8c-1,1.2-1.5,2.9-1.5,5.1
		v1.9c0,2.1,0.5,3.8,1.5,5c1,1.2,2.3,1.9,4,1.9c1.7,0,3-0.6,4-1.8c1-1.2,1.4-2.9,1.4-5.1V20.4z"/>
	<path class="st2" d="M148.2,30.2h-1.5L136.5,15v15.2H135V12.4h1.5l10.2,15.2V12.4h1.5V30.2z"/>
	<path class="st2" d="M168.4,22.3c0,1.6-0.3,3.1-0.8,4.3c-0.6,1.2-1.4,2.2-2.4,2.9s-2.3,1-3.6,1c-2.1,0-3.8-0.7-5-2.2
		c-1.3-1.5-1.9-3.5-1.9-6v-1.8c0-1.6,0.3-3.1,0.9-4.3c0.6-1.3,1.4-2.2,2.4-2.9c1.1-0.7,2.3-1,3.6-1s2.6,0.3,3.6,1s1.9,1.6,2.4,2.8
		c0.6,1.2,0.9,2.6,0.9,4.2V22.3z M166.9,20.4c0-2.1-0.5-3.8-1.5-5c-1-1.2-2.3-1.8-4-1.8c-1.7,0-3,0.6-4,1.8c-1,1.2-1.5,2.9-1.5,5.1
		v1.9c0,2.1,0.5,3.8,1.5,5c1,1.2,2.3,1.9,4,1.9c1.7,0,3-0.6,4-1.8c1-1.2,1.4-2.9,1.4-5.1V20.4z"/>
	<path class="st2" d="M176.7,12.4l6.6,15.7l6.6-15.7h2v17.8h-1.5v-7.8l0.1-7.9l-6.6,15.7h-1.2l-6.6-15.6l0.1,7.8v7.8h-1.5V12.4
		H176.7z"/>
	<path class="st2" d="M200.7,30.2h-1.5V12.4h1.5V30.2z"/>
	<path class="st2" d="M220.6,24.7c-0.2,1.9-0.9,3.3-2,4.3s-2.7,1.5-4.5,1.5c-1.3,0-2.5-0.3-3.5-1s-1.8-1.6-2.4-2.8
		c-0.6-1.2-0.8-2.6-0.8-4.2v-2.3c0-1.6,0.3-3,0.8-4.2c0.6-1.2,1.4-2.2,2.4-2.8c1-0.7,2.2-1,3.6-1c1.9,0,3.4,0.5,4.5,1.5
		c1.1,1,1.7,2.4,1.9,4.3h-1.5c-0.4-3-2-4.5-4.9-4.5c-1.6,0-2.9,0.6-3.9,1.8c-1,1.2-1.4,2.9-1.4,5v2.2c0,2.1,0.5,3.7,1.4,4.9
		c0.9,1.2,2.2,1.8,3.8,1.8c1.6,0,2.8-0.4,3.6-1.1s1.3-1.9,1.5-3.4H220.6z"/>
	<path class="st2" d="M236.8,25.9c0-1-0.3-1.8-1-2.3c-0.7-0.6-2-1.1-3.8-1.6s-3.2-1.1-4-1.7c-1.2-0.9-1.8-2-1.8-3.4
		c0-1.4,0.6-2.5,1.7-3.3c1.1-0.9,2.6-1.3,4.3-1.3c1.2,0,2.2,0.2,3.2,0.7c0.9,0.5,1.7,1.1,2.2,1.9s0.8,1.7,0.8,2.7h-1.5
		c0-1.2-0.4-2.2-1.2-2.9c-0.8-0.7-1.9-1.1-3.3-1.1c-1.4,0-2.4,0.3-3.3,0.9s-1.2,1.4-1.2,2.4c0,0.9,0.4,1.6,1.1,2.2
		c0.7,0.6,1.9,1.1,3.5,1.5c1.6,0.4,2.8,0.9,3.6,1.4s1.4,1,1.9,1.7c0.4,0.7,0.6,1.4,0.6,2.3c0,1.4-0.6,2.5-1.7,3.4
		c-1.1,0.8-2.6,1.3-4.4,1.3c-1.3,0-2.4-0.2-3.5-0.7s-1.8-1.1-2.4-1.9s-0.8-1.7-0.8-2.8h1.5c0,1.3,0.5,2.2,1.4,3
		c0.9,0.7,2.2,1.1,3.7,1.1c1.4,0,2.5-0.3,3.3-0.9C236.4,27.7,236.8,26.9,236.8,25.9z"/>
</g>
</svg>
