<?xml version="1.0" encoding="utf-8"?><svg width="587" height="29.5" viewBox="0 0 587 29.5" xmlns="http://www.w3.org/2000/svg" xmlns:xlink="http://www.w3.org/1999/xlink"><svg viewBox="4204 263 16.874 21.073" width="16.87" height="21.07" id="copy" xmlns="http://www.w3.org/2000/svg"><defs><style>.acls-1{fill:#03a5ed}</style></defs><g id="acopy" transform="translate(3472 -5.086)"><g id="aGroup_172" data-name="Group 172" transform="translate(732 268.086)"><path id="aPath_450" data-name="Path 450" class="acls-1" d="M60.112 85.4h-9.8a1.667 1.667 0 0 0-1.666 1.666v14.056a1.667 1.667 0 0 0 1.666 1.666h9.8a1.667 1.667 0 0 0 1.666-1.666V87.066a1.672 1.672 0 0 0-1.666-1.666zm.5 15.717a.5.5 0 0 1-.5.5h-9.8a.5.5 0 0 1-.5-.5V87.066a.5.5 0 0 1 .5-.5h9.8a.5.5 0 0 1 .5.5z" transform="translate(-48.65 -81.715)"/><path id="aPath_451" data-name="Path 451" class="acls-1" d="M146.912 0h-9.8a1.667 1.667 0 0 0-1.666 1.666.583.583 0 1 0 1.165 0 .5.5 0 0 1 .5-.5h9.8a.5.5 0 0 1 .5.5v14.056a.5.5 0 0 1-.5.5.583.583 0 0 0 0 1.165 1.667 1.667 0 0 0 1.666-1.666V1.666A1.667 1.667 0 0 0 146.912 0z" transform="translate(-131.704)"/></g></g></svg><svg id="flag-de" viewBox="0 0 22 14.4" width="22" height="14.4" x="17" xmlns="http://www.w3.org/2000/svg"><style>.bst0{fill:#464655}.bst1{fill:#ffe15a}.bst2{fill:#ff4b55}</style><path class="bst0" d="M22 4.8H0V.4C0 .1.1 0 .4 0h21.3c.2 0 .3.1.3.4v4.4z"/><path class="bst1" d="M21.6 14.4H.4c-.2 0-.4-.1-.4-.4V9.7h22v4.4c0 .1-.1.3-.4.3z"/><path class="bst2" d="M0 4.8h22v4.8H0z"/></svg><svg id="flag-en" viewBox="0 0 22 14.4" width="22" height="14.4" x="39" xmlns="http://www.w3.org/2000/svg"><style>.cst0{fill:#41479b}.cst1{fill:#f5f5f5}.cst2{fill:#ff4b55}</style><path class="cst0" d="M21.6 14.4H.4c-.2 0-.4-.1-.4-.4V.4C0 .1.1 0 .4 0h21.3c.2 0 .3.1.3.4V14c0 .2-.1.4-.4.4z"/><path class="cst1" d="M22 .4c0-.3-.1-.4-.4-.4h-1.7l-7 4.6V0H9.1v4.6L2.1 0H.4C.1 0 0 .1 0 .4v1l6 4H0v3.8h6l-6 4v1c0 .2.1.4.4.4h1.7l7-4.6v4.6h3.8V9.8l7 4.6h1.7c.2 0 .4-.1.4-.4v-1l-6-4h6V5.3h-6l6-3.9v-1z"/><path class="cst2" d="M22 6.1h-9.8V0H9.8v6.1H0v2.3h9.8v6h2.4v-6H22z"/><path class="cst2" d="M7.7 9.1l-7.7 5c0 .1.1.3.4.3h.5l8.2-5.3H7.7zm7.2 0h-1.4l8.1 5.3c.2 0 .4-.1.4-.4v-.3l-7.1-4.6zM0 .8l7 4.5h1.4L.2.1C.1.1 0 .2 0 .4v.4zm14.3 4.5l7.7-5c0-.2-.1-.3-.4-.3h-.5l-8.2 5.3h1.4z"/></svg><svg id="flag-jp" viewBox="0 0 22 14.7" width="22" height="14.7" x="61" xmlns="http://www.w3.org/2000/svg"><style>.dst0{fill:#f0f0f0}.dst1{fill:#d80027}</style><path class="dst0" d="M0 0h22v14.7H0z"/><circle class="dst1" cx="11" cy="7.3" r="4.1"/></svg><svg id="flag-ru" viewBox="0 0 22 14.4" width="22" height="14.4" x="83" xmlns="http://www.w3.org/2000/svg"><style>.est0{fill:#f5f5f5}.est1{fill:#ff4b55}.est2{fill:#41479b}</style><path class="est0" d="M22 4.8H0V.4C0 .1.1 0 .4 0h21.3c.2 0 .3.1.3.4v4.4z"/><path class="est1" d="M21.6 14.4H.4c-.2 0-.4-.1-.4-.4V9.7h22v4.4c0 .1-.1.3-.4.3z"/><path class="est2" d="M0 4.8h22v4.8H0z"/></svg><svg id="flag-zh" viewBox="0 0 22 14.4" width="22" height="14.4" x="105" xmlns="http://www.w3.org/2000/svg"><style>.fst0{fill:#ff4b55}.fst1{fill:#ffe15a}</style><path class="fst0" d="M21.6 14.4H.4c-.2 0-.4-.1-.4-.4V.4C0 .1.1 0 .4 0h21.3c.2 0 .3.1.3.4V14c0 .2-.1.4-.4.4z"/><path class="fst1" d="M3.7 2.3L4 3.4h1.2c.1 0 .2.2.1.3l-1 .7.4 1.1c0 .1-.1.2-.3.1l-.9-.7-1 .7c-.1.1-.3 0-.2-.1l.4-1.1-1-.7c-.1-.2 0-.3.1-.3H3l.4-1.1c0-.2.2-.2.3 0zm4.1.2l.3.4.4-.1c.1 0 .1.1.1.1l-.2.3.2.4c0 .1 0 .1-.1.1l-.4-.2-.3.4c0 .1-.1 0-.1 0v-.5l-.4-.2c-.1 0-.1-.1 0-.1l.4-.1.1-.5c-.1 0 0 0 0 0zm-1.6-1l.4.1.2-.4c0-.1.1-.1.1 0l.1.4.4.1c.1 0 .1.1 0 .1l-.3.1.1.4c0 .1-.1.1-.1.1l-.3-.3-.4.2c-.1 0-.1 0-.1-.1l.1-.4-.2-.3zm.7 4.2l-.2.4-.5-.2V6l.2.4-.2.3c0 .1 0 .1.1.1l.4-.1.3.3c0 .1 0 0 0 0v-.4l.4-.1c.1 0 .1-.1 0-.1L7 6.2v-.5s0-.1-.1 0zm1.6-1l-.4.1-.3-.4c0-.1-.1-.1-.1 0l-.1.4h-.3c-.1 0-.1.1 0 .1l.4.2-.1.5c0 .1.1.1.1.1l.3-.3.4.2c.1 0 .1 0 .1-.1l-.3-.4.3-.3c.1 0 .1-.1 0-.1z"/></svg><svg id="github" viewBox="0 0 15 17.2" width="15" height="17.2" x="127" xmlns="http://www.w3.org/2000/svg"><style>.gst0{fill:#fff}</style><g id="gGroup_431"><path id="gPath_582" class="gst0" d="M8 17.2c-1.4 0-2.6-.6-2.6-.9v-1.9c-3 .7-3.7-1.5-3.7-1.5-.2-.7-.6-1.2-1.2-1.6-1-.7.1-.7.1-.7.7.1 1.3.5 1.7 1.1.6 1.1 2 1.5 3.1.9 0-.6.3-1.1.7-1.5-2.4-.3-5-1.2-5-5.4 0-1.1.4-2.1 1.1-2.9C1.9 2 1.9.9 2.3 0c0 0 .9-.3 3 1.1 1.8-.5 3.7-.5 5.5 0 2.1-1.4 3-1.1 3-1.1.4.9.4 2 .1 2.9.7.8 1.1 1.9 1.1 3 0 4.2-2.6 5.1-5 5.4.5.5.8 1.3.7 2v3c0 .3-1.1.9-2.7.9z"/></g></svg><svg width="13.758" height="9.899" viewBox="0 0 13.758 9.899" id="i-check" x="142" xmlns="http://www.w3.org/2000/svg"><path d="M4.95 9.9a1.087 1.087 0 0 1-.772-.32L.32 5.721a1.091 1.091 0 1 1 1.543-1.543L4.95 7.269 11.9.32a1.091 1.091 0 1 1 1.543 1.543L5.722 9.58a1.088 1.088 0 0 1-.772.32z" fill="#54ce63"/></svg><svg width="22.45" height="22.451" viewBox="0 0 22.45 22.451" id="i-checked" x="156" xmlns="http://www.w3.org/2000/svg"><path data-name="Path 1166" d="M11.225 0A11.225 11.225 0 1 0 22.45 11.225 11.225 11.225 0 0 0 11.225 0zm0 20.346a9.121 9.121 0 1 1 9.12-9.121 9.12 9.12 0 0 1-9.12 9.121zm4.412-13.9a.977.977 0 0 0-1.361.379l-3.764 6.765-2.1-2.552a1.055 1.055 0 0 0-1.36-.379 1.038 1.038 0 0 0-.366 1.413l2.917 3.551a1.231 1.231 0 0 0 .728.5h.027a1.273 1.273 0 0 0 1.32-.507l4.32-7.76a1.057 1.057 0 0 0-.361-1.406z" fill="#54ce63"/></svg><svg id="i-close" viewBox="0 0 16.2 16.2" width="16.2" height="16.2" x="179" xmlns="http://www.w3.org/2000/svg"><style>.jst0{fill:#03a5ed}</style><path class="jst0" d="M13.4 15.6L.5 2.7C-.1 2.1-.1 1.1.5.5s1.6-.6 2.2 0l13 13c.6.6.6 1.6 0 2.2-.6.6-1.7.5-2.3-.1zm2.2-12.8L2.7 15.7c-.6.6-1.6.6-2.2 0-.6-.6-.6-1.6 0-2.2l13-13c.6-.6 1.6-.6 2.2 0 .5.7.5 1.7-.1 2.3z"/></svg><svg width="22.446" height="22.446" viewBox="0 0 22.446 22.446" id="i-error" x="196" xmlns="http://www.w3.org/2000/svg"><path data-name="Path 1165" d="M11.223 0a11.223 11.223 0 1 0 11.223 11.223A11.223 11.223 0 0 0 11.223 0zm0 20.342a9.119 9.119 0 1 1 9.119-9.119 9.118 9.118 0 0 1-9.119 9.119zm0-15.42c-.8 0-1.412.419-1.412 1.1v6.215c0 .678.608 1.1 1.412 1.1.784 0 1.412-.436 1.412-1.1V6.019c.001-.661-.627-1.097-1.411-1.097zm0 9.808a1.4 1.4 0 1 0 1.4 1.4 1.4 1.4 0 0 0-1.399-1.4z" fill="#f15a24"/></svg><svg id="i-nav" viewBox="0 0 21.6 20" width="21.6" height="20" x="219" xmlns="http://www.w3.org/2000/svg"><style>.lst0{fill:#03a5ed}</style><path class="lst0" d="M19.9 20H1.6C.7 20 0 19.3 0 18.4s.7-1.6 1.6-1.6H20c.9 0 1.6.7 1.6 1.6s-.9 1.6-1.7 1.6zm0-8.4H1.6C.7 11.6 0 10.9 0 10s.7-1.6 1.6-1.6H20c.9 0 1.6.7 1.6 1.6s-.9 1.6-1.7 1.6zm0-8.5H1.6C.7 3.1 0 2.4 0 1.6 0 .7.7 0 1.6 0H20c.9 0 1.6.7 1.6 1.6-.2.8-.9 1.5-1.7 1.5z"/></svg><svg id="i-profile" viewBox="0 0 16 21" width="16" height="21" x="241" xmlns="http://www.w3.org/2000/svg"><style>.mst0{fill:#03a5ed}</style><path class="mst0" d="M8 10.3c2.3 0 4.2-2.3 4.2-5.1C12.2 2.3 11.6 0 8 0S3.8 2.3 3.8 5.1c0 2.9 1.9 5.2 4.2 5.2zm-8 7.8c0-.1 0 0 0 0zm16 .2c0-.1 0-.4 0 0zm0-.4c-.1-4.9-.7-6.4-5.7-7.3 0 0-.7.9-2.3.9s-2.3-.9-2.3-.9C.8 11.6.1 13 0 17.8v.9s1.2 2.4 8 2.4 8-2.4 8-2.4v-.8z"/></svg><svg width="25.257" height="25.257" viewBox="0 0 25.257 25.257" id="logo-aira" x="257" xmlns="http://www.w3.org/2000/svg"><g data-name="Group 1349"><path data-name="Rectangle 764" fill="#fff" d="M12.268 12.749h.401v10.183h-.401z"/></g><g data-name="Group 1350"><path data-name="Rectangle 765" fill="#fff" d="M22.771 2.325h.401v20.687h-.401z"/></g><g data-name="Group 1351"><path data-name="Rectangle 766" fill="#fff" d="M2.14 22.833L22.778 2.195l.283.284L2.424 23.117z"/></g><g data-name="Group 1352"><path data-name="Rectangle 767" fill="#fff" d="M2.325 22.771h20.687v.401H2.325z"/></g><g data-name="Group 1353"><path data-name="Rectangle 768" fill="#fff" d="M12.332 22.792l10.46-10.176.28.288-10.46 10.175z"/></g><g data-name="Group 1358"><circle data-name="Ellipse 249" cx="2.325" cy="2.325" r="2.325" fill="#fff" transform="translate(20.606 20.606)"/></g><g data-name="Group 1359"><circle data-name="Ellipse 250" cx="2.325" cy="2.325" r="2.325" fill="#fff" transform="translate(20.606)"/></g><g data-name="Group 1360"><circle data-name="Ellipse 251" cx="2.325" cy="2.325" r="2.325" fill="#fff" transform="translate(20.606 10.263)"/></g><g data-name="Group 1361"><circle data-name="Ellipse 252" cx="2.325" cy="2.325" r="2.325" fill="#fff" transform="translate(0 20.606)"/></g><g data-name="Group 1362"><circle data-name="Ellipse 253" cx="2.325" cy="2.325" r="2.325" fill="#fff" transform="translate(10.263 20.606)"/></g><g data-name="Group 1363"><circle data-name="Ellipse 254" cx="2.325" cy="2.325" r="2.325" fill="#fff" transform="translate(10.263 10.423)"/></g></svg><svg id="logo-aira-pale" width="25.3" height="25.3" viewBox="0 0 25.3 25.3" x="283" xmlns="http://www.w3.org/2000/svg"><style>.ost0{fill:#7481b9}</style><g id="oGroup_1349" transform="translate(12.268 12.749)"><path id="oRectangle_764" class="ost0" d="M0 0h.4v10.2H0z"/></g><g id="oGroup_1350" transform="translate(22.771 2.325)"><path id="oRectangle_765" class="ost0" d="M0 0h.4v20.7H0z"/></g><g id="oGroup_1351" transform="translate(2.14 2.196)"><path id="oRectangle_766" transform="rotate(-45.001 10.46 10.46)" class="ost0" d="M-4.1 10.3h29.2v.4H-4.1z"/></g><g id="oGroup_1352" transform="translate(2.325 22.771)"><path id="oRectangle_767" class="ost0" d="M0 0h20.7v.4H0z"/></g><g id="oGroup_1353" transform="translate(12.332 12.616)"><path id="oRectangle_768" transform="rotate(-44.209 5.37 5.232)" class="ost0" d="M-1.9 5h14.6v.4H-1.9z"/></g><g id="oGroup_1358" transform="translate(20.606 20.606)"><circle id="oEllipse_249" class="ost0" cx="2.3" cy="2.3" r="2.3"/></g><g id="oGroup_1359" transform="translate(20.606)"><circle id="oEllipse_250" class="ost0" cx="2.3" cy="2.3" r="2.3"/></g><g id="oGroup_1360" transform="translate(20.606 10.263)"><circle id="oEllipse_251" class="ost0" cx="2.3" cy="2.3" r="2.3"/></g><g id="oGroup_1361" transform="translate(0 20.606)"><circle id="oEllipse_252" class="ost0" cx="2.3" cy="2.3" r="2.3"/></g><g id="oGroup_1362" transform="translate(10.263 20.606)"><circle id="oEllipse_253" class="ost0" cx="2.3" cy="2.3" r="2.3"/></g><g id="oGroup_1363" transform="translate(10.263 10.423)"><circle id="oEllipse_254" class="ost0" cx="2.3" cy="2.3" r="2.3"/></g></svg><svg width="33.481" height="29.491" viewBox="0 0 33.481 29.491" id="logo-robonomics" x="309" xmlns="http://www.w3.org/2000/svg"><g data-name="3_Robonomics_logo_white"><g data-name="Group 2881"><path data-name="Path 1161" d="M16.778 1.003l-15.7 27.2h31.411z" fill="none" stroke="#fff" stroke-miterlimit="10" stroke-width=".4"/><circle data-name="Ellipse 281" cx="1.107" cy="1.107" r="1.107" transform="rotate(-25.517 75.973 -53.666)" fill="#fff"/><circle data-name="Ellipse 282" cx="1.107" cy="1.107" r="1.107" transform="translate(15.694)" fill="#fff"/><circle data-name="Ellipse 283" cx="1.107" cy="1.107" r="1.107" transform="translate(0 26.922)" fill="#fff"/></g><g data-name="Group 2882" fill="#fff"><path data-name="Path 1162" d="M10.084 23.37h13.679l-6.839-3.609z"/><path data-name="Path 1163" d="M16.654 10.907L9.696 22.963l6.972-3.67z"/><path data-name="Path 1164" d="M24.145 22.949l-6.943-12.028.057 8.325z"/></g></g></svg><svg id="logo-robonomics-pale" width="33.5" height="29.5" viewBox="0 0 33.5 29.5" x="343" xmlns="http://www.w3.org/2000/svg"><style>.qst0{fill:#7481b9}</style><g id="q_3_Robonomics_logo_white" transform="translate(-150 -192)"><g id="qGroup_2881" transform="translate(150 192)"><path class="qst0" d="M32.8 28.4H.7L16.7.6l16.1 27.8zM1.4 28h30.7L16.8 1.4 1.4 28z" id="qPath_1161"/><circle class="qst0" cx="32" cy="28" r="1.1" id="qEllipse_281"/><circle class="qst0" cx="16.8" cy="1.1" r="1.1" id="qEllipse_282"/><circle class="qst0" cx="1.1" cy="28" r="1.1" id="qEllipse_283"/></g><g id="qGroup_2882" transform="translate(159.696 202.907)"><path class="qst0" d="M.4 12.5h13.7L7.2 8.9.4 12.5z" id="qPath_1162"/><path class="qst0" d="M7 0L0 12.1l7-3.7V0z" id="qPath_1163"/><path class="qst0" d="M14.4 12L7.5 0l.1 8.3 6.8 3.7z" id="qPath_1164"/></g></g></svg><svg id="reddit" viewBox="0 0 15 12.5" width="15" height="12.5" x="377" xmlns="http://www.w3.org/2000/svg"><style>.rst0{fill:#fff}</style><path id="rPath_580" class="rst0" d="M13.2 4.3c-.4 0-.8.1-1.1.4-1.2-.7-2.6-1.1-4-1.2l.8-2.4 2.1.5c.1.8.8 1.4 1.6 1.4.8-.1 1.4-.8 1.4-1.6S13.2-.1 12.4 0c-.5 0-1 .3-1.2.8L8.7.2c-.2 0-.4.1-.5.3l-1 3c-1.5 0-3 .4-4.3 1.2C2.1 4.1 1 4.2.4 5c-.3.3-.4.7-.4 1.1 0 .6.3 1.1.8 1.5V8c.1 1.4.8 2.6 2 3.2 1.4.9 3 1.3 4.7 1.3 1.6 0 3.3-.4 4.7-1.3 1.2-.7 2-1.9 2-3.2v-.4c.8-.5 1.1-1.6.5-2.4-.3-.6-.9-.9-1.5-.9zM12.5.8c.4 0 .7.3.7.7s-.3.7-.7.7c-.4 0-.7-.3-.7-.7 0-.4.3-.7.7-.7zM4.3 7.2c0-.6.5-1 1-1 .6 0 1 .5 1 1 0 .6-.5 1-1 1-.6 0-1-.4-1-1zm5.7 3c-.7.6-1.6.8-2.5.8-.9 0-1.8-.2-2.5-.8-.1-.2-.1-.4 0-.6.2-.2.4-.2.6 0 .5.4 1.2.6 1.9.5.7.1 1.3-.1 1.9-.5.2-.2.4-.2.6 0 .1.2.1.4 0 .6zm-.3-2c-.6 0-1-.4-1-1s.5-1 1-1c.6 0 1 .5 1 1 0 .6-.4 1-1 1z"/></svg><svg id="reddit-2" viewBox="0 0 15 20.5" width="15" height="20.5" x="392" xmlns="http://www.w3.org/2000/svg"><style>.sst0{fill:#fff}</style><path class="sst0" d="M5.8 13.1c0 .3-.1.6-.1 1 0 1.8.6 3.5 1.3 4h.8c.8-.5 1.3-2.2 1.3-4 0-.3 0-.6-.1-1-.9.3-2.1.3-3.2 0z"/><path class="sst0" d="M15 6c0-1.1-.9-2-2-2-.4 0-.8.1-1.1.3-1.2-.7-2.7-1.2-4.1-1.3L8.5.6l2 .6c0 .1-.1.3-.1.4 0 .9.8 1.7 1.7 1.7.9 0 1.7-.8 1.7-1.7 0-.9-.8-1.7-1.7-1.7-.5 0-1 .3-1.3.6L8.7 0c-.3-.1-.6.1-.7.4l-.8 2.7c-1.4.1-2.9.5-4.1 1.3C2.7 4.2 2.4 4 2 4 .9 4 0 4.9 0 6c0 .6.3 1.2.8 1.6v.3c0 1.3.7 2.5 2.1 3.3.2.2.5.3.8.4-.7.6-1.2 1.6-1.2 2.7 0 1.5.8 2.7 2 3.1 0 .1 0 .1.1.2-1 .1-1.8.9-1.8 1.8 0 .2 0 .4.1.6.1.3.3.4.6.4h8.3c.3 0 .5-.2.6-.4.1-.2 0-.3 0-.5v-.1c0-.9-.7-1.7-1.7-1.8 0-.1 0-.1.1-.2 1.2-.4 2-1.7 2-3.1 0-1.1-.4-2.1-1.2-2.7.3-.1.5-.3.8-.4 1.3-.9 2.1-2.1 2.1-3.3v-.3c.2-.4.5-1 .5-1.6zM4 7.2c0-.8.6-1.4 1.4-1.4s1.4.6 1.4 1.4-.7 1.3-1.4 1.3S4 7.9 4 7.2zm1.1 2.1c.1-.1.3-.1.5 0 .3.3.9.6 1.8.6s1.6-.3 1.8-.6c.1-.1.3-.1.5 0 .1.1.1.3 0 .5-.5.5-1.4.8-2.3.8s-1.8-.3-2.3-.8c-.1-.1-.1-.4 0-.5zm3.1 9.4H6.8C5.7 18.1 5 16.2 5 14.1c0-.5 0-1 .1-1.4 0-.1.1-.2.2-.2.1-.1.2-.1.3 0 1.2.4 2.6.4 3.8 0h.3l.2.2c.1.5.1 1 .1 1.4-.1 2.2-.8 4-1.8 4.6zM9.5 8.5c-.8 0-1.4-.6-1.4-1.4s.6-1.4 1.4-1.4c.8 0 1.4.6 1.4 1.4s-.7 1.4-1.4 1.4z"/><path class="sst0" d="M6.1 7.2c0-.4-.3-.7-.7-.7s-.7.3-.7.7c0 .4.3.7.7.7s.7-.4.7-.7zm3.4-.7c-.4 0-.7.3-.7.7 0 .4.3.7.7.7.4 0 .7-.3.7-.7 0-.4-.4-.7-.7-.7z"/></svg><svg id="sleep" width="39.8" height="28" viewBox="0 0 39.8 28" x="407" xmlns="http://www.w3.org/2000/svg"><style>.tst0{fill:#fff}</style><path class="tst0" d="M12.4 6.2c-.3 0-.6.2-.8.4-1.8 2-2.8 4.7-2.8 7.4s1 5.4 2.8 7.4c.2.2.5.4.8.4.3 0 .6-.1.9-.3l2.2-2.2c.4-.4.5-1.1.1-1.6-.9-1-1.3-2.3-1.3-3.6 0-1.3.5-2.6 1.3-3.6.2-.2.3-.5.3-.8 0-.3-.1-.6-.3-.8l-2.2-2.2c-.4-.4-.7-.5-1-.5zm2.3 3.4c-1 1.2-1.6 2.8-1.6 4.4 0 1.6.6 3.2 1.6 4.4l-2.2 2.3C10.9 18.9 10 16.5 10 14s.9-4.8 2.5-6.7l2.2 2.3zm3.4 2.6c-.5.5-.7 1.1-.7 1.8s.3 1.3.7 1.8c1 1 2.6 1 3.5 0 .5-.5.7-1.1.7-1.8 0-.6-.2-1.3-.7-1.8-.5-.5-1.1-.7-1.8-.7-.6 0-1.2.3-1.7.7zm2.7.9c.5.5.5 1.3 0 1.8s-1.3.5-1.8 0c-.2-.2-.4-.6-.4-.9 0-.3.1-.7.4-.9.2-.2.6-.4.9-.4.3 0 .7.1.9.4z"/><path class="tst0" d="M5.4.4C-1.8 8-1.8 20 5.4 27.6c.2.3.5.4.8.4.3 0 .6-.1.9-.3l2.2-2.2c.5-.5.5-1.2 0-1.6-2.5-2.7-3.8-6.1-3.8-9.8 0-3.6 1.4-7.1 3.8-9.8.3-.3.4-.6.4-.9 0-.3-.1-.6-.3-.8L7.1.3C6.9.1 6.6 0 6.2 0c-.3 0-.6.1-.8.4zm3.1 3C5.8 6.3 4.4 10.1 4.4 14c0 3.9 1.5 7.7 4.1 10.6l-2.2 2.2C-.4 19.6-.4 8.4 6.3 1.2l2.2 2.2zM26.6 6.5l-2.2 2.2c-.3.3-.4.6-.4.9 0 .3.1.5.3.8.9 1 1.3 2.3 1.3 3.6 0 1.3-.5 2.6-1.3 3.6-.4.5-.4 1.2.1 1.6l2.2 2.2c.2.2.5.4.9.3.3 0 .6-.2.8-.4 1.8-2 2.8-4.7 2.8-7.4s-1-5.4-2.8-7.4c-.2-.2-.5-.4-.8-.4-.4.1-.7.2-.9.4zm.8.8c1.6 1.8 2.5 4.2 2.5 6.7s-.9 4.8-2.5 6.7l-2.2-2.3c1-1.2 1.6-2.8 1.6-4.4 0-1.6-.6-3.2-1.6-4.4l2.2-2.3zm-7.5 4.2c-.7 0-1.3.3-1.8.7-.5.5-.7 1.1-.7 1.8 0 .6.2 1.3.7 1.8 1 1 2.5 1 3.5 0 .5-.5.7-1.1.7-1.8s-.3-1.3-.7-1.8c-.4-.4-1-.7-1.7-.7zm0 1.2c.3 0 .7.1.9.4.2.2.4.6.4.9 0 .3-.1.7-.4.9-.5.5-1.3.5-1.8 0s-.5-1.3 0-1.8c.2-.3.6-.4.9-.4z"/><path class="tst0" d="M33.6 0c-.3 0-.6.1-.9.3l-2.2 2.2c-.2.2-.3.5-.3.8 0 .3.1.6.3.8 2.5 2.7 3.8 6.1 3.8 9.8 0 3.6-1.4 7.1-3.8 9.8-.4.5-.4 1.2 0 1.6l2.2 2.2c.2.2.5.4.9.3.3 0 .6-.1.8-.4 7.2-7.6 7.2-19.6 0-27.3-.2 0-.5-.1-.8-.1zm0 1.2c6.8 7.2 6.8 18.4 0 25.6l-2.2-2.2c2.7-2.9 4.1-6.6 4.1-10.6 0-3.9-1.5-7.7-4.1-10.6l2.2-2.2z"/></svg><svg id="token-aira" viewBox="0 0 25 25" width="25" height="25" x="447" xmlns="http://www.w3.org/2000/svg"><style>.ust0{fill:#03a5ed}.ust0,.ust1,.ust2{fill-rule:evenodd;clip-rule:evenodd}.ust1{fill:#fff}.ust2{fill:none;stroke:#fff;stroke-width:.3914;stroke-linecap:round;stroke-linejoin:round;stroke-miterlimit:10}.ust3{fill:#fff}.ust4{fill-rule:evenodd;clip-rule:evenodd;fill:none;stroke:#606060;stroke-width:.7827;stroke-linecap:round;stroke-linejoin:round;stroke-miterlimit:10}</style><circle class="ust0" cx="12.5" cy="12.5" r="12.5"/><path class="ust1" d="M21.3 12h-.2c-.2-.6-.7-1-1.2-1V8.9c0-.8-.7-1.5-1.5-1.5h-4.2v-1h-1.4V4.1c.4-.1.7-.5.7-1 0-.6-.5-1.1-1.1-1.1-.6 0-1.1.5-1.1 1.1 0 .5.3.9.7 1v2.3h-1.4v1H6.5c-.8 0-1.5.7-1.5 1.5V11c-.5 0-.9.4-1.2 1h-.2c-.6 0-1.1.5-1.1 1.1 0 .6.5 1.1 1.1 1.1h.2c.2.6.7 1 1.2 1v2.1c0 .8.7 1.5 1.5 1.5h11.9c.8 0 1.5-.7 1.5-1.5v-2.1c.5 0 .9-.4 1.2-1h.2c.6 0 1.1-.5 1.1-1.1 0-.6-.5-1.1-1.1-1.1z"/><path class="ust2" d="M23.9 12.5c0 6.3-5.1 11.4-11.4 11.4S1.1 18.8 1.1 12.5 6.2 1.1 12.5 1.1s11.4 5.1 11.4 11.4"/><path class="ust3" d="M12.5 20.4l.3.8h.8l-.7.5.3.8-.7-.5-.7.5.3-.8-.7-.5h.8zm4.1-.8l.3.8h.8l-.6.4.2.8-.7-.5-.6.5.2-.8-.6-.4h.8zm-8.2 0l.2.8h.8l-.6.4.2.8-.6-.5-.7.5.2-.8-.6-.4h.8z"/><path class="ust4" d="M7.2 14.6s1.5 2.3 5.1 2.3 5.5-2.3 5.5-2.3"/><circle class="ust4" cx="15.4" cy="11.8" r="1.9"/><circle class="ust4" cx="9.6" cy="11.8" r="1.9"/></svg><svg id="token-airakys" viewBox="0 0 25 25" width="25" height="25" x="472" xmlns="http://www.w3.org/2000/svg"><style>.vst0,.vst1{fill-rule:evenodd;clip-rule:evenodd;fill:#96a2cc}.vst1{fill:#fff}.vst2{fill:none;stroke:#fff;stroke-width:.3914;stroke-linecap:round;stroke-linejoin:round;stroke-miterlimit:10}.vst3{fill:#fff}.vst4{fill:none;stroke:#606060;stroke-width:.7827;stroke-linecap:round;stroke-linejoin:round;stroke-miterlimit:10}</style><circle class="vst0" cx="12.5" cy="12.5" r="12.5"/><path class="vst1" d="M21.3 12h-.2c-.2-.6-.7-1-1.2-1V8.9c0-.8-.7-1.5-1.5-1.5h-4.2v-1h-1.4V4.1c.4-.1.7-.5.7-1 0-.6-.5-1.1-1.1-1.1s-1.1.5-1.1 1.1c0 .5.3.9.7 1v2.3h-1.4v1H6.5c-.8 0-1.5.7-1.5 1.5V11c-.5 0-.9.4-1.2 1h-.2c-.6 0-1.1.5-1.1 1.1s.5 1.1 1.1 1.1h.2c.2.6.7 1 1.2 1v2.1c0 .8.7 1.5 1.5 1.5h11.9c.8 0 1.5-.7 1.5-1.5v-2.1c.5 0 .9-.4 1.2-1h.2c.6 0 1.1-.5 1.1-1.1 0-.6-.5-1.1-1.1-1.1z"/><path class="vst2" d="M23.9 12.5c0 6.3-5.1 11.4-11.4 11.4S1.1 18.8 1.1 12.5 6.2 1.1 12.5 1.1s11.4 5.1 11.4 11.4"/><path class="vst3" d="M12.5 20.4l.3.8h.8l-.7.5.3.8-.7-.5-.7.5.3-.8-.7-.5h.8zm4.1-.8l.3.8h.8l-.6.4.2.8-.7-.5-.6.5.2-.8-.6-.4h.8zm-8.2 0l.2.8h.8l-.6.4.2.8-.6-.5-.7.5.2-.8-.6-.4h.8z"/><path class="vst4" d="M7.2 14.6s1.5 2.3 5.1 2.3 5.5-2.3 5.5-2.3"/><circle class="vst4" cx="15.4" cy="11.8" r="1.9"/><circle class="vst4" cx="9.6" cy="11.8" r="1.9"/></svg><svg id="token-xrt" viewBox="0 0 25 25" width="25" height="25" x="497" xmlns="http://www.w3.org/2000/svg"><style>.wst0{fill:#03a5ed}.wst1{fill:#fff}.wst2{fill:none;stroke:#fff;stroke-width:.8098;stroke-miterlimit:10}</style><circle class="wst0" cx="12.5" cy="12.5" r="12.5"/><path class="wst1" d="M12.6 9.2l-4.3 7.1h8.4z"/><path class="wst2" d="M12.6 4.9L4.8 18.1h15.4z"/><circle class="wst1" cx="12.5" cy="4.9" r="1.1"/><circle class="wst1" cx="20.1" cy="18.1" r="1.1"/><circle class="wst1" cx="4.9" cy="18.1" r="1.1"/></svg><svg id="user-unknown" viewBox="0 0 25 23.4" width="25" height="23.4" x="522" xmlns="http://www.w3.org/2000/svg"><style>.xst0{fill:#fff}</style><path class="xst0" d="M19.6 13.6c0-5.4-4.4-9.8-9.8-9.8S0 8.2 0 13.6c0 2.8 1.2 5.4 3.2 7.3l.3.2s.1 0 .1.1c.2.2.3.2.6.4l.2.2c.2.1.4.2.6.4.1 0 .1.1.2.1.2.2.5.2.7.3H6c.7.3 1.6.7 2.3.8h.1c.3.1.6.1.8.1h1.7c.2 0 .6-.1.7-.1h.1c.8-.2 1.6-.4 2.3-.7.2-.1.5-.2.7-.3.1 0 .1-.1.2-.1.2-.1.4-.2.6-.4.1-.1.2-.1.2-.2.2-.1.3-.2.5-.3l.1-.1.3-.2c1.7-2.1 3-4.7 3-7.5zm-18.9 0c0-5 4.1-9.1 9.1-9.1s9.1 4.1 9.1 9.1c0 2.7-1.2 5.1-3.1 6.8-.1-.1-.2-.2-.3-.2l-2.9-1.5c-.2-.2-.5-.4-.5-.7v-1c.1-.1.2-.2.2-.3.4-.6.7-1.2.9-1.8.5-.2.7-.7.7-1.2v-1.2c0-.3-.1-.7-.3-.8V10c0-.2.1-1.2-.7-2.1-.7-.7-1.8-1.1-3.2-1.1s-2.4.3-3 1c-.8.9-.7 2-.7 2.1v1.7c-.3.2-.3.6-.3.8v1.2c0 .4.2.8.5 1 .3 1.1.8 2 1.1 2.3v1c0 .3-.2.6-.4.7L4 20.2c-.1.1-.2.1-.3.2-1.8-1.8-3-4.2-3-6.8z"/><path class="xst0" d="M9.8 5.3c4.6 0 8.2 3.7 8.2 8.2s-3.7 8.2-8.2 8.2-8.2-3.8-8.2-8.2 3.6-8.2 8.2-8.2m0-1.5C4.4 3.8 0 8.1 0 13.6s4.4 9.8 9.8 9.8 9.8-4.4 9.8-9.8-4.4-9.8-9.8-9.8z"/><path class="xst0" d="M19.4 0c-3.1 0-5.6 2.5-5.6 5.6s2.5 5.6 5.6 5.6S25 8.7 25 5.6 22.5 0 19.4 0zm.4 8.8c0 .1-.2.2-.5.2-.2 0-.4-.1-.5-.2-.1-.1-.2-.2-.2-.4s.1-.3.2-.5c.1-.1.2-.2.5-.2.2 0 .3.1.5.2.2.2.2.3.2.6 0 .1-.1.2-.2.3zm.9-3.4l-.6.6c-.2.2-.3.6-.3 1h-1c0-.4 0-.7.2-.9.1-.2.3-.5.7-.8.3-.3.5-.5.6-.7.2-.2.2-.4.2-.7s-.1-.5-.2-.7c-.2-.2-.3-.2-.7-.2-.2 0-.5.1-.7.2-.2.2-.2.3-.2.6h-1c0-.6.2-.9.6-1.2s.8-.5 1.4-.5c.7 0 1.1.2 1.4.5.2.4.4.8.4 1.4-.1.5-.3.9-.8 1.4z"/></svg><svg id="work" width="39.8" height="28" viewBox="0 0 39.8 28" x="547" xmlns="http://www.w3.org/2000/svg"><style>.yst0{fill:#fff}</style><path class="yst0" d="M12.4 6.2c-.3 0-.6.2-.8.4-1.8 2-2.8 4.7-2.8 7.4s1 5.4 2.8 7.4c.2.2.5.4.8.4.3 0 .6-.1.9-.3l2.2-2.2c.4-.4.5-1.1.1-1.6-.9-1-1.3-2.3-1.3-3.6 0-1.3.5-2.6 1.3-3.6.2-.2.3-.5.3-.8 0-.3-.1-.6-.3-.8l-2.2-2.2c-.4-.4-.7-.5-1-.5zm5.7 6c-.5.5-.7 1.1-.7 1.8s.3 1.3.7 1.8c1 1 2.6 1 3.5 0 .5-.5.7-1.1.7-1.8 0-.6-.2-1.3-.7-1.8-.5-.5-1.1-.7-1.8-.7-.6 0-1.2.3-1.7.7zm2.7.9c.5.5.5 1.3 0 1.8s-1.3.5-1.8 0c-.2-.2-.4-.6-.4-.9 0-.3.1-.7.4-.9.2-.2.6-.4.9-.4.3 0 .7.1.9.4z"/><path class="yst0" d="M5.4.4C-1.8 8-1.8 20 5.4 27.6c.2.3.5.4.8.4.3 0 .6-.1.9-.3l2.2-2.2c.5-.5.5-1.2 0-1.6-2.5-2.7-3.8-6.1-3.8-9.8 0-3.6 1.4-7.1 3.8-9.8.3-.3.4-.6.4-.9 0-.3-.1-.6-.3-.8L7.1.3C6.9.1 6.6 0 6.2 0c-.3 0-.6.1-.8.4zM26.6 6.5l-2.2 2.2c-.3.3-.4.6-.4.9 0 .3.1.5.3.8.9 1 1.3 2.3 1.3 3.6 0 1.3-.5 2.6-1.3 3.6-.4.5-.4 1.2.1 1.6l2.2 2.2c.2.2.5.4.9.3.3 0 .6-.2.8-.4 1.8-2 2.8-4.7 2.8-7.4s-1-5.4-2.8-7.4c-.2-.2-.5-.4-.8-.4-.4.1-.7.2-.9.4zm-6.7 5c-.7 0-1.3.3-1.8.7-.5.5-.7 1.1-.7 1.8 0 .6.2 1.3.7 1.8 1 1 2.5 1 3.5 0 .5-.5.7-1.1.7-1.8s-.3-1.3-.7-1.8c-.4-.4-1-.7-1.7-.7z"/><path class="yst0" d="M33.6 0c-.3 0-.6.1-.9.3l-2.2 2.2c-.2.2-.3.5-.3.8 0 .3.1.6.3.8 2.5 2.7 3.8 6.1 3.8 9.8 0 3.6-1.4 7.1-3.8 9.8-.4.5-.4 1.2 0 1.6l2.2 2.2c.2.2.5.4.9.3.3 0 .6-.1.8-.4 7.2-7.6 7.2-19.6 0-27.3-.2 0-.5-.1-.8-.1z"/></svg></svg>