<?xml version="1.0" encoding="utf-8"?>
<!-- Generator: Adobe Illustrator 26.5.0, SVG Export Plug-In . SVG Version: 6.00 Build 0)  -->
<svg version="1.1" id="Слой_1" xmlns="http://www.w3.org/2000/svg" xmlns:xlink="http://www.w3.org/1999/xlink" x="0px" y="0px"
	 viewBox="0 0 512 512" style="enable-background:new 0 0 512 512;" xml:space="preserve">
<path d="M464,64c26.5,0,48,21.5,48,48c0,15.1-7.1,29.3-19.2,38.4L275.2,313.6c-11.4,8.5-27,8.5-38.4,0L19.2,150.4
	C7.1,141.3,0,127.1,0,112c0-26.5,21.5-48,48-48H464z M217.6,339.2c22.8,17.1,54,17.1,76.8,0L512,176v208c0,35.3-28.7,64-64,64H64
	c-35.3,0-64-28.7-64-64V176L217.6,339.2z"/>
</svg>
