<?xml version="1.0" encoding="utf-8"?>
<!-- Generator: Adobe Illustrator 26.0.2, SVG Export Plug-In . SVG Version: 6.00 Build 0)  -->
<svg version="1.1" id="Слой_1" xmlns="http://www.w3.org/2000/svg" xmlns:xlink="http://www.w3.org/1999/xlink" x="0px" y="0px"
	 viewBox="0 0 38 30" style="enable-background:new 0 0 38 30;" xml:space="preserve" width="38" height="30">
<style type="text/css">
	.st0{fill:#FFFFFF;}
</style>
<path class="st0" d="M19,19.9c1.9,0,3.4-1.5,3.4-3.4c0-1.9-1.5-3.4-3.4-3.4s-3.4,1.5-3.4,3.4S17.1,19.9,19,19.9z M35.9,17.1
	c-0.1,0-0.3,0-0.4,0c-0.5-1.1-1.3-1.9-2.2-1.9c0,0-0.1,0-0.1,0v-3.8c0-1.7-1.4-3.1-3.1-3.1h-7.8V8.2c0-0.6-0.5-1-1-1h-1.8V4
	c0.9-0.2,1.6-1,1.6-2C20.9,0.9,20,0,18.9,0S16.8,0.9,16.8,2c0,1,0.7,1.8,1.6,2v3.2h-1.8c-0.6,0-1,0.5-1,1v0.1H7.7
	c-1.7,0-3.1,1.4-3.1,3.1v3.8c-0.9,0-1.7,0.8-2.2,1.9c-0.1,0-0.2,0-0.4,0C0.9,17.1,0,18,0,19.2c0,1.1,0.9,2.1,2.1,2.1
	c0.1,0,0.3,0,0.4,0c0.4,1.1,1.2,1.9,2.2,1.9v3.8C4.6,28.6,6,30,7.7,30h22.3c1.7,0,3.1-1.4,3.1-3.1v-3.8c0,0,0.1,0,0.1,0
	c1,0,1.8-0.8,2.2-1.9c0.1,0,0.2,0,0.4,0c1.1,0,2.1-0.9,2.1-2.1C38,18,37.1,17.1,35.9,17.1z M19,10.7c3.2,0,5.8,2.6,5.8,5.8
	s-2.6,5.8-5.8,5.8s-5.8-2.6-5.8-5.8S15.8,10.7,19,10.7z M28.1,23.4c-0.1,0.2-3.5,4-9.5,4c-6.1,0-8.7-3.9-8.9-4.1
	c-0.4-0.5-0.2-1.3,0.3-1.6c0.5-0.4,1.3-0.2,1.6,0.3c0.1,0.1,2.1,3.1,6.9,3.1c4.9,0,7.6-3,7.7-3.2c0.4-0.5,1.2-0.5,1.6-0.1
	C28.5,22.2,28.5,22.9,28.1,23.4z"/>
</svg>
