<svg width="37" height="32" viewBox="0 0 37 32" fill="none" xmlns="http://www.w3.org/2000/svg">
<g clip-path="url(#clip0_2_45)">
<path d="M18.4312 1.10132L1.18445 30.9766H35.6832L18.4312 1.10132Z" stroke="white" stroke-width="0.550362" stroke-miterlimit="10"/>
<path d="M35.1512 31.9849C35.8225 31.9849 36.3668 31.4407 36.3668 30.7693C36.3668 30.098 35.8225 29.5537 35.1512 29.5537C34.4798 29.5537 33.9356 30.098 33.9356 30.7693C33.9356 31.4407 34.4798 31.9849 35.1512 31.9849Z" fill="white"/>
<path d="M19.6529 1.41079C19.7604 0.74811 19.3104 0.123706 18.6478 0.0161383C17.9851 -0.0914291 17.3607 0.358574 17.2531 1.02125C17.1456 1.68392 17.5956 2.30833 18.2582 2.4159C18.9209 2.52347 19.5453 2.07346 19.6529 1.41079Z" fill="white"/>
<path d="M1.21558 32C1.88693 32 2.43117 31.4558 2.43117 30.7844C2.43117 30.1131 1.88693 29.5688 1.21558 29.5688C0.544236 29.5688 0 30.1131 0 30.7844C0 31.4558 0.544236 32 1.21558 32Z" fill="white"/>
<path d="M11.0753 25.6675H26.0987L18.587 21.7039L11.0753 25.6675Z" fill="white"/>
<path d="M18.2909 11.9792L10.6494 25.2207L18.3065 21.1896L18.2909 11.9792Z" fill="white"/>
<path d="M26.5195 25.2052L18.8936 11.9948L18.9559 21.1377L26.5195 25.2052Z" fill="white"/>
</g>
<defs>
<clipPath id="clip0_2_45">
<rect width="36.3673" height="32" fill="white"/>
</clipPath>
</defs>
</svg>
