<?xml version="1.0" encoding="utf-8"?>
<!-- Generator: Adobe Illustrator 23.0.1, SVG Export Plug-In . SVG Version: 6.00 Build 0)  -->
<svg version="1.1" id="Слой_1" xmlns="http://www.w3.org/2000/svg" xmlns:xlink="http://www.w3.org/1999/xlink" x="0px" y="0px"
	 width="512px" height="512px" viewBox="0 0 512 512" style="enable-background:new 0 0 512 512;" xml:space="preserve">
<style type="text/css">
	.st0{fill:#D1D3D4;stroke:#4E1951;stroke-width:9;stroke-miterlimit:10;}
	.st1{fill:#E6E7E8;stroke:#4E1951;stroke-width:9;stroke-miterlimit:10;}
	.st2{fill:#BCBEC0;}
	.st3{fill:#FF5023;stroke:#4E1951;stroke-width:9;stroke-miterlimit:10;}
	.st4{fill:#4E1951;}
</style>
<g id="Mission_Archive">
	<path class="st0" d="M440,296c0,104.6-83.7,189.9-188.2,191.9c-1.2,0.1-2.5,0.1-3.8,0.1c-18.6,0-37.1-2.7-55-8.1
		C91.5,449.6,33.7,342.7,64,241.1c21.9-73.2,85.1-126.5,161-135.7c15.3-1.9,30.8-1.9,46.1,0c16.8,2,33.3,6.2,49,12.6
		c5.4,2.2,10.8,4.6,16,7.4c5.4,2.8,10.8,5.9,16,9.3c5.5,3.6,10.9,7.4,16,11.5c23.7,19,42.6,43.4,55,71.1
		c8.9,19.5,14.4,40.5,16.2,61.8C439.8,284.6,440,290.3,440,296L440,296z"/>
	<g>
		<path class="st1" d="M439.3,279.1c-2.4,0.6-4.8,0.9-7.3,0.9c-17.7,0-32-14.3-32-32c0-14.2,9.4-26.7,23-30.7
			C431.9,236.8,437.4,257.7,439.3,279.1z"/>
		<path class="st1" d="M136,392c0,17.3-13.8,31.5-31.1,31.9c-12.1-13.5-22.2-28.6-30-45c7.2-16.1,26-23.4,42.2-16.2
			C128.6,367.9,136,379.4,136,392L136,392z"/>
		<circle class="st1" cx="328" cy="384" r="64"/>
		<circle class="st1" cx="168" cy="208" r="40"/>
		<path class="st1" d="M251.8,487.9c-1.2,0.1-2.5,0.1-3.8,0.1c-18.6,0-37.1-2.7-55-8.1c-0.7-2.6-1.1-5.2-1-7.9c0-17.7,14.3-32,32-32
			s32,14.3,32,32C256,477.6,254.5,483.1,251.8,487.9L251.8,487.9z"/>
		<circle class="st1" cx="176" cy="312" r="16"/>
		<circle class="st1" cx="272" cy="264" r="8"/>
		<circle class="st1" cx="264" cy="144" r="24"/>
		<circle class="st1" cx="208" cy="376" r="8"/>
		<circle class="st1" cx="80" cy="272" r="8"/>
	</g>
	<path class="st2" d="M368,146.2V264h-32V125.4c5.4,2.8,10.8,5.9,16,9.3C357.5,138.2,362.9,142.1,368,146.2z"/>
	<polygon class="st3" points="480,24 352,24 320,24 320,118 320,264 352,264 352,134.6 352,120 480,120 448,72 	"/>
	<circle class="st4" cx="272" cy="264" r="16"/>
	<circle class="st4" cx="208" cy="376" r="16"/>
	<path class="st4" d="M464,424h-16v16h-16v16h16v16h16v-16h16v-16h-16V424z"/>
	<path class="st4" d="M368,480h16v16h-16V480z"/>
	<path class="st4" d="M48,64V48h16V32H48V16H32v16H16v16h16v16H48z"/>
	<path class="st4" d="M128,32h16v16h-16V32z"/>
	<path class="st4" d="M64,112h16v16H64V112z"/>
	<path class="st4" d="M200,64h16v16h-16V64z"/>
	<path class="st4" d="M16,424h16v16H16V424z"/>
	<path class="st4" d="M64,464h16v16H64V464z"/>
	<path class="st4" d="M464,184h16v16h-16V184z"/>
	<path class="st4" d="M480,296h16v16h-16V296z"/>
</g>
</svg>
