<?xml version="1.0" encoding="utf-8"?>
<!-- Generator: Adobe Illustrator 23.0.1, SVG Export Plug-In . SVG Version: 6.00 Build 0)  -->
<svg version="1.1" id="Слой_1" xmlns="http://www.w3.org/2000/svg" xmlns:xlink="http://www.w3.org/1999/xlink" x="0px" y="0px"
	 width="40px" height="40px" viewBox="0 0 40 40" style="enable-background:new 0 0 40 40;" xml:space="preserve">
<style type="text/css">
	.st0{fill-rule:evenodd;clip-rule:evenodd;fill:#FFFFFF;}
</style>
<title>Group 12</title>
<desc>Created with Sketch.</desc>
<g id="Page-1">
	<g transform="translate(-220.000000, -23.000000)">
		<g id="Group-11" transform="translate(-181.000000, -126.000000)">
			<g id="Group-12" transform="translate(401.000000, 148.000000)">
				<g id="Group-20" transform="translate(0.000000, 1.000000)">
					<path id="Fill-1" class="st0" d="M31.6,34.7c-1.5,0-2.7-0.8-3.1-2.3c-0.4-1.5-1.2-2.9-2.4-4c-1.5-1.5-3.3-2.4-5.4-2.7
						c-5.2-0.6-8.9,2.9-10,6.7c-0.7,2.8-3.8,2.9-5.2,1.5c-1.8-1.7-1.2-4.5,1.2-5.3c1.2-0.4,2.2-0.8,3.2-1.6c4.4-3.3,5-9.8,1.2-13.8
						c-1.2-1.2-2.7-2-4.3-2.6c-2-0.6-2.9-2.9-1.8-4.7c0.7-1,1.8-1.5,2.9-1.4c1.3,0.1,2.2,0.8,2.8,2.1c0.4,0.9,0.7,1.9,1.2,2.8
						c1.8,2.8,4.3,4.1,7.6,4.3c3.8,0.2,7.8-2.4,9.1-6.6c0.4-1.2,1.2-2.1,2.5-2.4c1.8-0.4,3.6,0.9,3.7,2.8c0.1,1.6-0.7,2.9-2.3,3.4
						c-1.8,0.5-3.4,1.5-4.6,2.9c-4.2,4.9-2.1,12.5,3.9,14.7c0.7,0.3,1.4,0.4,2,1c0.9,0.9,1.2,2.2,0.7,3.5
						C34,33.9,32.9,34.7,31.6,34.7"/>
					<path id="Fill-3" class="st0" d="M7.5,40c-1.1,0-2-0.2-3-0.4c-0.2-0.1-0.4-0.1-0.5-0.2c-0.3-0.2-0.4-0.4-0.3-0.6
						c0.2-0.3,0.4-0.4,0.9-0.3c0.2,0.1,0.4,0.1,0.5,0.2c2.5,0.7,4.8,0.4,6.8-1c0.1-0.1,0.3-0.2,0.4-0.3c0.3-0.2,0.6-0.2,0.9,0
						c0.3,0.3,0.3,0.5-0.1,0.7c-0.7,0.4-1.4,0.9-2.2,1.2C9.9,39.8,8.5,40,7.5,40"/>
					<g id="Group-7" transform="translate(0.000000, 30.000000)">
						<g id="Clip-6">
						</g>
						<path id="Fill-5" class="st0" d="M0,2.6c0-2,0.4-3.8,1.4-5.3C1.5-2.8,1.6-3,1.8-3.1c0.2-0.3,0.4-0.4,0.7,0
							c0.2,0.3,0.2,0.6,0,0.9C2.2-1.9,2.1-1.6,1.9-1.3c-1,2-1.1,4-0.5,6.1c0,0.2,0.1,0.3,0.2,0.4c0.2,0.5,0.1,0.8-0.2,1
							c-0.3,0.2-0.5,0-0.7-0.5C0.4,5.3,0.2,4.7,0.1,4C0,3.6,0,3.1,0,2.6"/>
					</g>
					<path id="Fill-8" class="st0" d="M32.8,0c0.9,0,1.9,0.2,2.9,0.4c0.2,0.1,0.4,0.1,0.5,0.3c0.1,0.1,0.3,0.4,0.2,0.4
						c-0.1,0.2-0.4,0.3-0.5,0.4c-0.3,0-0.4-0.1-0.7-0.1c-2.6-0.7-4.9-0.4-7,0.9c-0.2,0.1-0.3,0.2-0.4,0.3c-0.3,0.2-0.6,0.1-0.8-0.1
						c-0.3-0.2-0.3-0.4,0-0.6c0.1-0.1,0.3-0.2,0.4-0.3C28.8,0.5,30.6,0,32.8,0"/>
					<path id="Fill-10" class="st0" d="M40,8.6c0,1.8-0.5,3.6-1.6,5.1c-0.4,0.5-0.7,0.6-0.9,0.4c-0.3-0.3-0.2-0.7,0.2-1.2
						c1.4-2.2,1.8-4.6,1-7.3c0-0.1,0-0.2-0.1-0.3c-0.1-0.4-0.1-0.7,0.2-0.9c0.3-0.2,0.5,0,0.7,0.4C39.8,5.7,40,7,40,8.6"/>
					<path id="Fill-12" class="st0" d="M14.2,2c0,0.4-0.4,0.7-0.9,0.5c-0.2-0.1-0.4-0.2-0.5-0.4c-2.1-1.3-4.5-1.7-7.1-0.9
						C5.5,1.4,5.3,1.5,5.1,1.5c-0.3,0-0.4-0.1-0.5-0.3C4.4,1,4.5,0.8,4.6,0.7c0.3-0.1,0.4-0.2,0.7-0.3c3-0.8,5.8-0.5,8.3,1.1
						C13.9,1.7,14.1,1.9,14.2,2"/>
					<path id="Fill-14" class="st0" d="M0,7.5c0-1.2,0.2-2.3,0.5-3.3C0.7,3.6,1,3.5,1.3,3.6c0.3,0.2,0.4,0.4,0.2,1
						C1.1,5.7,1,6.8,1,8c0.1,1.4,0.5,2.6,1.2,3.7c0.1,0.2,0.3,0.4,0.4,0.5c0.2,0.4,0.2,0.8,0,1c-0.3,0.3-0.5,0.1-0.8-0.2
						c-0.1-0.1-0.1-0.2-0.2-0.3C0.5,11.2-0.1,9.4,0,7.5"/>
					<path id="Fill-16" class="st0" d="M26.7,38c0-0.4,0.4-0.7,0.9-0.5c0.2,0.1,0.4,0.2,0.5,0.4c2.1,1.3,4.5,1.7,7.1,0.9
						c0.2-0.1,0.4-0.1,0.6-0.2c0.3,0,0.4,0.1,0.5,0.3c0.2,0.3,0.1,0.4-0.2,0.5c-0.2,0.1-0.4,0.2-0.7,0.3c-3,0.8-5.8,0.5-8.3-1.1
						C27,38.3,26.9,38.1,26.7,38"/>
					<path id="Fill-18" class="st0" d="M40,32.5c0,1.2-0.1,2.2-0.5,3.3c-0.2,0.5-0.4,0.7-0.8,0.5c-0.3-0.2-0.4-0.4-0.2-1
						c0.4-1.1,0.5-2.2,0.4-3.4c-0.1-1.4-0.5-2.6-1.2-3.7c-0.1-0.2-0.3-0.4-0.4-0.5c-0.2-0.4-0.2-0.8,0-1c0.3-0.3,0.5-0.1,0.8,0.2
						c0.1,0.1,0.1,0.2,0.2,0.3C39.5,28.8,40.1,30.6,40,32.5"/>
				</g>
			</g>
		</g>
	</g>
</g>
</svg>
