<?xml version="1.0" encoding="utf-8"?>
<!-- Generator: Adobe Illustrator 23.0.1, SVG Export Plug-In . SVG Version: 6.00 Build 0)  -->
<svg version="1.1" id="Group_968" xmlns="http://www.w3.org/2000/svg" xmlns:xlink="http://www.w3.org/1999/xlink" x="0px" y="0px"
	 width="185.8px" height="40.6px" viewBox="0 0 185.8 40.6" style="enable-background:new 0 0 185.8 40.6;" xml:space="preserve">
<style type="text/css">
	.st0{enable-background:new    ;}
	.st1{fill:#03A5ED;}
</style>
<g class="st0">
	<path class="st1" d="M10.4,22.8H5.2v7.4H3.7V12.4h5.8c1.9,0,3.4,0.5,4.4,1.4c1.1,0.9,1.6,2.2,1.6,3.9c0,1.1-0.3,2.1-1,3
		s-1.6,1.5-2.7,1.8l4.4,7.6v0.2h-1.6L10.4,22.8z M5.2,21.5h4.6c1.3,0,2.3-0.4,3-1.1c0.8-0.7,1.1-1.6,1.1-2.8c0-1.3-0.4-2.2-1.2-2.9
		s-1.9-1-3.4-1H5.1L5.2,21.5L5.2,21.5z"/>
	<path class="st1" d="M35.3,22.3c0,1.6-0.3,3.1-0.8,4.3c-0.6,1.2-1.4,2.2-2.4,2.9c-1,0.7-2.3,1-3.6,1c-2.1,0-3.8-0.7-5-2.2
		c-1.3-1.5-1.9-3.5-1.9-6v-1.8c0-1.6,0.3-3.1,0.9-4.3c0.6-1.3,1.4-2.2,2.4-2.9c1.1-0.7,2.3-1,3.6-1s2.6,0.3,3.6,1s1.9,1.6,2.4,2.8
		c0.6,1.2,0.9,2.6,0.9,4.2L35.3,22.3L35.3,22.3z M33.8,20.4c0-2.1-0.5-3.8-1.5-5s-2.3-1.8-4-1.8s-3,0.6-4,1.8
		c-1,1.2-1.5,2.9-1.5,5.1v1.9c0,2.1,0.5,3.8,1.5,5s2.3,1.9,4,1.9s3-0.6,4-1.8c1-1.2,1.4-2.9,1.4-5.1L33.8,20.4L33.8,20.4z"/>
	<path class="st1" d="M41.6,30.2V12.4h5.3c1.9,0,3.4,0.4,4.3,1.2c1,0.8,1.5,1.9,1.5,3.5c0,0.9-0.3,1.7-0.8,2.4
		c-0.5,0.7-1.2,1.2-2.1,1.5c1,0.2,1.9,0.7,2.5,1.5s0.9,1.7,0.9,2.7c0,1.6-0.5,2.8-1.5,3.7s-2.4,1.3-4.2,1.3
		C47.5,30.2,41.6,30.2,41.6,30.2z M43.1,20.4h4.1c1.3,0,2.2-0.3,2.9-0.9s1-1.4,1-2.5s-0.4-2-1.1-2.5s-1.8-0.8-3.2-0.8H43L43.1,20.4
		L43.1,20.4z M43.1,21.7V29h4.5c1.3,0,2.3-0.3,3.1-1s1.1-1.6,1.1-2.7s-0.4-2-1.1-2.6s-1.7-1-3-1C47.7,21.7,43.1,21.7,43.1,21.7z"/>
	<path class="st1" d="M72.6,22.3c0,1.6-0.3,3.1-0.8,4.3c-0.6,1.2-1.4,2.2-2.4,2.9s-2.3,1-3.6,1c-2.1,0-3.8-0.7-5-2.2
		c-1.3-1.5-1.9-3.5-1.9-6v-1.8c0-1.6,0.3-3.1,0.9-4.3c0.6-1.3,1.4-2.2,2.4-2.9c1.1-0.7,2.3-1,3.6-1s2.6,0.3,3.6,1s1.9,1.6,2.4,2.8
		c0.6,1.2,0.9,2.6,0.9,4.2L72.6,22.3L72.6,22.3z M71.1,20.4c0-2.1-0.5-3.8-1.5-5s-2.3-1.8-4-1.8c-1.7,0-3,0.6-4,1.8
		c-1,1.2-1.5,2.9-1.5,5.1v1.9c0,2.1,0.5,3.8,1.5,5s2.3,1.9,4,1.9c1.7,0,3-0.6,4-1.8c1-1.2,1.4-2.9,1.4-5.1L71.1,20.4L71.1,20.4z"/>
	<path class="st1" d="M92.1,30.2h-1.5L80.4,15v15.2h-1.5V12.4h1.5l10.2,15.2V12.4h1.5V30.2z"/>
	<path class="st1" d="M112.3,22.3c0,1.6-0.3,3.1-0.8,4.3c-0.6,1.2-1.4,2.2-2.4,2.9s-2.3,1-3.6,1c-2.1,0-3.8-0.7-5-2.2
		c-1.3-1.5-1.9-3.5-1.9-6v-1.8c0-1.6,0.3-3.1,0.9-4.3c0.6-1.3,1.4-2.2,2.4-2.9c1.1-0.7,2.3-1,3.6-1s2.6,0.3,3.6,1s1.9,1.6,2.4,2.8
		c0.6,1.2,0.9,2.6,0.9,4.2L112.3,22.3L112.3,22.3z M110.8,20.4c0-2.1-0.5-3.8-1.5-5s-2.3-1.8-4-1.8s-3,0.6-4,1.8
		c-1,1.2-1.5,2.9-1.5,5.1v1.9c0,2.1,0.5,3.8,1.5,5s2.3,1.9,4,1.9s3-0.6,4-1.8c1-1.2,1.4-2.9,1.4-5.1L110.8,20.4L110.8,20.4z"/>
	<path class="st1" d="M120.6,12.4l6.6,15.7l6.6-15.7h2v17.8h-1.5v-7.8l0.1-7.9l-6.6,15.7h-1.2L120,14.6l0.1,7.8v7.8h-1.5V12.4H120.6
		z"/>
	<path class="st1" d="M144.6,30.2h-1.5V12.4h1.5V30.2z"/>
	<path class="st1" d="M164.5,24.7c-0.2,1.9-0.9,3.3-2,4.3s-2.7,1.5-4.5,1.5c-1.3,0-2.5-0.3-3.5-1s-1.8-1.6-2.4-2.8
		c-0.6-1.2-0.8-2.6-0.8-4.2v-2.3c0-1.6,0.3-3,0.8-4.2c0.6-1.2,1.4-2.2,2.4-2.8c1-0.7,2.2-1,3.6-1c1.9,0,3.4,0.5,4.5,1.5
		s1.7,2.4,1.9,4.3H163c-0.4-3-2-4.5-4.9-4.5c-1.6,0-2.9,0.6-3.9,1.8s-1.4,2.9-1.4,5v2.2c0,2.1,0.5,3.7,1.4,4.9
		c0.9,1.2,2.2,1.8,3.8,1.8s2.8-0.4,3.6-1.1s1.3-1.9,1.5-3.4C163.1,24.7,164.5,24.7,164.5,24.7z"/>
	<path class="st1" d="M180.7,25.9c0-1-0.3-1.8-1-2.3c-0.7-0.6-2-1.1-3.8-1.6s-3.2-1.1-4-1.7c-1.2-0.9-1.8-2-1.8-3.4s0.6-2.5,1.7-3.3
		c1.1-0.9,2.6-1.3,4.3-1.3c1.2,0,2.2,0.2,3.2,0.7c0.9,0.5,1.7,1.1,2.2,1.9s0.8,1.7,0.8,2.7h-1.5c0-1.2-0.4-2.2-1.2-2.9
		s-1.9-1.1-3.3-1.1c-1.4,0-2.4,0.3-3.3,0.9s-1.2,1.4-1.2,2.4c0,0.9,0.4,1.6,1.1,2.2c0.7,0.6,1.9,1.1,3.5,1.5s2.8,0.9,3.6,1.4
		s1.4,1,1.9,1.7c0.4,0.7,0.6,1.4,0.6,2.3c0,1.4-0.6,2.5-1.7,3.4c-1.1,0.8-2.6,1.3-4.4,1.3c-1.3,0-2.4-0.2-3.5-0.7s-1.8-1.1-2.4-1.9
		s-0.8-1.7-0.8-2.8h1.5c0,1.3,0.5,2.2,1.4,3c0.9,0.7,2.2,1.1,3.7,1.1c1.4,0,2.5-0.3,3.3-0.9C180.3,27.7,180.7,26.9,180.7,25.9z"/>
</g>
</svg>
