<?xml version="1.0" encoding="utf-8"?><svg width="60" height="22.451" viewBox="0 0 60 22.451" xmlns="http://www.w3.org/2000/svg" xmlns:xlink="http://www.w3.org/1999/xlink"><svg width="13.758" height="9.899" viewBox="0 0 13.758 9.899" id="i-check" xmlns="http://www.w3.org/2000/svg"><path d="M4.95 9.9a1.087 1.087 0 0 1-.772-.32L.32 5.721a1.091 1.091 0 1 1 1.543-1.543L4.95 7.269 11.9.32a1.091 1.091 0 1 1 1.543 1.543L5.722 9.58a1.088 1.088 0 0 1-.772.32z" fill="#54ce63"/></svg><svg width="22.45" height="22.451" viewBox="0 0 22.45 22.451" id="i-checked" x="14" xmlns="http://www.w3.org/2000/svg"><path data-name="Path 1166" d="M11.225 0A11.225 11.225 0 1 0 22.45 11.225 11.225 11.225 0 0 0 11.225 0zm0 20.346a9.121 9.121 0 1 1 9.12-9.121 9.12 9.12 0 0 1-9.12 9.121zm4.412-13.9a.977.977 0 0 0-1.361.379l-3.764 6.765-2.1-2.552a1.055 1.055 0 0 0-1.36-.379 1.038 1.038 0 0 0-.366 1.413l2.917 3.551a1.231 1.231 0 0 0 .728.5h.027a1.273 1.273 0 0 0 1.32-.507l4.32-7.76a1.057 1.057 0 0 0-.361-1.406z" fill="#54ce63"/></svg><svg width="22.446" height="22.446" viewBox="0 0 22.446 22.446" id="i-error" x="37" xmlns="http://www.w3.org/2000/svg"><path data-name="Path 1165" d="M11.223 0a11.223 11.223 0 1 0 11.223 11.223A11.223 11.223 0 0 0 11.223 0zm0 20.342a9.119 9.119 0 1 1 9.119-9.119 9.118 9.118 0 0 1-9.119 9.119zm0-15.42c-.8 0-1.412.419-1.412 1.1v6.215c0 .678.608 1.1 1.412 1.1.784 0 1.412-.436 1.412-1.1V6.019c.001-.661-.627-1.097-1.411-1.097zm0 9.808a1.4 1.4 0 1 0 1.4 1.4 1.4 1.4 0 0 0-1.399-1.4z" fill="#f15a24"/></svg></svg>