<?xml version="1.0" encoding="utf-8"?>
<!-- Generator: Adobe Illustrator 26.0.2, SVG Export Plug-In . SVG Version: 6.00 Build 0)  -->
<svg version="1.1" id="Слой_1" xmlns="http://www.w3.org/2000/svg" xmlns:xlink="http://www.w3.org/1999/xlink" x="0px" y="0px"
	 viewBox="0 0 616 487.2" style="enable-background:new 0 0 616 487.2;" xml:space="preserve">
<style type="text/css">
	.st0{fill:#FFFFFF;}
</style>
<g>
	<g>
		<path class="st0" d="M308,322.8c30.7,0,55.6-25,55.6-55.6c0-30.7-25-55.7-55.6-55.7s-55.6,25-55.6,55.7S277.3,322.8,308,322.8z"/>
		<path class="st0" d="M582.7,277.9c-2.1,0-4.1,0.2-6.1,0.6c-7.4-18.5-20.9-30.8-36.3-30.8c-0.8,0-1.5,0-2.3,0.1V186
			c0-27.9-22.9-50.8-50.8-50.8H360.3v-1.5c0-9-7.3-16.3-16.3-16.3h-29.7V65.6c14.5-3.6,25.2-16.7,25.2-32.3
			c0-18.4-14.9-33.3-33.3-33.3c-18.4,0-33.3,14.9-33.3,33.3c0,15.6,10.7,28.7,25.2,32.3v51.7h-29.7c-9,0-16.3,7.3-16.3,16.3v1.5
			H125.1c-27.9,0-50.8,22.9-50.8,50.8v61.7c-14.8,0.7-27.7,12.9-34.9,30.8c-2-0.4-4-0.6-6.1-0.6C14.9,277.9,0,292.8,0,311.2
			c0,18.4,14.9,33.3,33.3,33.3c2.1,0,4.1-0.2,6.1-0.6c7.2,17.9,20.1,30,34.9,30.8v61.7c0,28,22.9,50.8,50.8,50.8h362.1
			c28,0,50.8-22.9,50.8-50.8v-61.7c0.8,0.1,1.5,0.1,2.3,0.1c15.4,0,28.9-12.4,36.3-30.8c2,0.4,4,0.6,6.1,0.6
			c18.4,0,33.3-14.9,33.3-33.3C616,292.8,601.1,277.9,582.7,277.9z M308,173.8c51.5,0,93.4,41.9,93.4,93.4s-41.9,93.4-93.4,93.4
			s-93.4-41.9-93.4-93.4C214.6,215.7,256.5,173.8,308,173.8z M455.9,379.4c-2.2,2.6-56.1,64.7-153.7,64.7
			c-99.1,0-141.8-63.9-143.6-66.6c-5.7-8.7-3.2-20.4,5.5-26.1c8.7-5.7,20.3-3.2,26.1,5.4c1.5,2.2,34.3,49.6,111.9,49.6
			c79.6,0,123.2-49.4,125-51.5c6.8-7.9,18.7-8.8,26.6-2C461.7,359.6,462.7,371.4,455.9,379.4z"/>
	</g>
</g>
</svg>
