<?xml version="1.0" encoding="utf-8"?>
<!-- Generator: Adobe Illustrator 22.1.0, SVG Export Plug-In . SVG Version: 6.00 Build 0)  -->
<svg version="1.1" id="Layer_1" xmlns="http://www.w3.org/2000/svg" xmlns:xlink="http://www.w3.org/1999/xlink" x="0px" y="0px"
	 viewBox="0 0 403.9 96" style="enable-background:new 0 0 403.9 96;" xml:space="preserve">
<style type="text/css">
	.st0{fill:#03A5ED;}
	.st1{fill:#B5C0F1;}
	.st2{fill:#535974;}
	.st3{enable-background:new    ;}
</style>
<g id="Group_2773" transform="translate(-640)">
	<g id="Group_2003" transform="translate(602 22.326)">
		<g id="Ellipse_1">
			<circle class="st0" cx="276.2" cy="41.5" r="2.6"/>
		</g>
		<g id="Ellipse_2">
			<circle class="st0" cx="204.6" cy="41.3" r="2.6"/>
		</g>
		<g id="Ellipse_3">
			<circle class="st0" cx="240.7" cy="-19.8" r="2.6"/>
		</g>
		<g id="Path_1">
			<path class="st0" d="M277.3,41.9l-73.6-0.2l37-63L277.3,41.9z M205.4,40.7l70.1,0.2l-34.9-60.2L205.4,40.7z"/>
		</g>
		<g id="Path_2">
			<path class="st0" d="M222.6,31l35.9,0.1L240.6,0.3L222.6,31z"/>
		</g>
		<g id="Path_3">
			<path class="st1" d="M240.5,31.1l17.9,0L240.6,0.3L240.5,31.1z"/>
		</g>
		<g id="Path_4">
			<path class="st2" d="M222.6,31l35.9,0.1l-17.9-7.9L222.6,31z"/>
		</g>
	</g>
	<g id="Group_2004" transform="translate(-28 -80)">
		<g id="Group_3" transform="translate(466 167.335)">
			<g class="st3">
				<path class="st2" d="M209.9-3.9h-3.8v6.6h-2.2v-16.4h5.4c1.8,0,3.3,0.4,4.3,1.3c1,0.8,1.5,2.1,1.5,3.7c0,1-0.3,1.9-0.8,2.7
					c-0.5,0.8-1.3,1.3-2.3,1.7l3.8,6.9v0.1h-2.3L209.9-3.9z M206.1-5.7h3.3c1.1,0,1.9-0.3,2.6-0.8c0.6-0.6,0.9-1.3,0.9-2.2
					c0-1-0.3-1.8-0.9-2.3c-0.6-0.5-1.5-0.8-2.6-0.8h-3.3V-5.7z"/>
				<path class="st2" d="M231.8-5c0,1.6-0.3,3-0.8,4.2s-1.3,2.1-2.3,2.7s-2.1,0.9-3.5,0.9c-1.3,0-2.4-0.3-3.4-0.9s-1.8-1.5-2.3-2.7
					c-0.5-1.2-0.8-2.5-0.8-4.1V-6c0-1.6,0.3-3,0.8-4.2s1.3-2.1,2.3-2.8c1-0.6,2.1-1,3.4-1c1.3,0,2.5,0.3,3.5,0.9
					c1,0.6,1.8,1.5,2.3,2.8c0.5,1.2,0.8,2.6,0.8,4.2V-5z M229.6-6c0-1.9-0.4-3.4-1.2-4.5s-1.9-1.6-3.3-1.6c-1.4,0-2.4,0.5-3.2,1.6
					c-0.8,1-1.2,2.5-1.2,4.3V-5c0,1.9,0.4,3.4,1.2,4.4c0.8,1.1,1.9,1.6,3.3,1.6c1.4,0,2.5-0.5,3.2-1.5s1.2-2.5,1.2-4.4V-6z"/>
				<path class="st2" d="M236.2,2.7v-16.4h5.3c1.8,0,3.1,0.4,4,1.1c0.9,0.7,1.3,1.8,1.3,3.3c0,0.8-0.2,1.4-0.7,2s-1,1-1.8,1.4
					c0.9,0.2,1.6,0.7,2.1,1.4c0.5,0.7,0.8,1.5,0.8,2.5c0,1.5-0.5,2.6-1.4,3.5s-2.3,1.3-4,1.3H236.2z M238.3-6.7h3.3
					c0.9,0,1.7-0.2,2.3-0.7c0.6-0.5,0.8-1.1,0.8-1.9c0-0.9-0.3-1.6-0.8-2c-0.5-0.4-1.3-0.6-2.4-0.6h-3.2V-6.7z M238.3-5v5.9h3.6
					c1,0,1.8-0.3,2.4-0.8c0.6-0.5,0.9-1.2,0.9-2.2c0-2-1.1-3-3.2-3H238.3z"/>
				<path class="st2" d="M264.2-5c0,1.6-0.3,3-0.8,4.2s-1.3,2.1-2.3,2.7s-2.1,0.9-3.5,0.9c-1.3,0-2.4-0.3-3.4-0.9s-1.8-1.5-2.3-2.7
					c-0.5-1.2-0.8-2.5-0.8-4.1V-6c0-1.6,0.3-3,0.8-4.2s1.3-2.1,2.3-2.8c1-0.6,2.1-1,3.4-1c1.3,0,2.5,0.3,3.5,0.9
					c1,0.6,1.8,1.5,2.3,2.8c0.5,1.2,0.8,2.6,0.8,4.2V-5z M262.1-6c0-1.9-0.4-3.4-1.2-4.5S259-12,257.6-12c-1.4,0-2.4,0.5-3.2,1.6
					c-0.8,1-1.2,2.5-1.2,4.3V-5c0,1.9,0.4,3.4,1.2,4.4c0.8,1.1,1.9,1.6,3.3,1.6c1.4,0,2.5-0.5,3.2-1.5s1.2-2.5,1.2-4.4V-6z"/>
				<path class="st2" d="M281.2,2.7H279l-8.2-12.6V2.7h-2.2v-16.4h2.2L279-1v-12.7h2.1V2.7z"/>
				<path class="st2" d="M298.7-5c0,1.6-0.3,3-0.8,4.2s-1.3,2.1-2.3,2.7s-2.1,0.9-3.5,0.9c-1.3,0-2.4-0.3-3.4-0.9s-1.8-1.5-2.3-2.7
					c-0.5-1.2-0.8-2.5-0.8-4.1V-6c0-1.6,0.3-3,0.8-4.2s1.3-2.1,2.3-2.8c1-0.6,2.1-1,3.4-1c1.3,0,2.5,0.3,3.5,0.9
					c1,0.6,1.8,1.5,2.3,2.8c0.5,1.2,0.8,2.6,0.8,4.2V-5z M296.6-6c0-1.9-0.4-3.4-1.2-4.5s-1.9-1.6-3.3-1.6c-1.4,0-2.4,0.5-3.2,1.6
					c-0.8,1-1.2,2.5-1.2,4.3V-5c0,1.9,0.4,3.4,1.2,4.4c0.8,1.1,1.9,1.6,3.3,1.6c1.4,0,2.5-0.5,3.2-1.5s1.2-2.5,1.2-4.4V-6z"/>
				<path class="st2" d="M305.9-13.7l5.3,13.3l5.3-13.3h2.8V2.7h-2.2v-6.4l0.2-6.9l-5.4,13.2h-1.7l-5.4-13.2l0.2,6.8v6.4h-2.2v-16.4
					H305.9z"/>
				<path class="st2" d="M326.7,2.7h-2.2v-16.4h2.2V2.7z"/>
				<path class="st2" d="M343.8-2.5c-0.2,1.7-0.8,3.1-1.9,4c-1.1,0.9-2.5,1.4-4.3,1.4c-1.9,0-3.5-0.7-4.6-2.1
					c-1.2-1.4-1.7-3.2-1.7-5.6v-1.6c0-1.5,0.3-2.9,0.8-4c0.5-1.2,1.3-2,2.3-2.7c1-0.6,2.1-0.9,3.5-0.9c1.7,0,3.1,0.5,4.2,1.5
					s1.7,2.3,1.8,4h-2.2c-0.2-1.3-0.6-2.3-1.2-2.8c-0.6-0.6-1.5-0.9-2.6-0.9c-1.4,0-2.5,0.5-3.2,1.5c-0.8,1-1.2,2.5-1.2,4.3v1.6
					c0,1.8,0.4,3.2,1.1,4.2s1.8,1.6,3.1,1.6c1.2,0,2.1-0.3,2.8-0.8c0.6-0.5,1.1-1.5,1.3-2.8H343.8z"/>
				<path class="st2" d="M352.7-4.6c-1.8-0.5-3.2-1.2-4-2c-0.8-0.8-1.3-1.7-1.3-2.9c0-1.3,0.5-2.4,1.5-3.2c1-0.8,2.4-1.3,4-1.3
					c1.1,0,2.1,0.2,3,0.7c0.9,0.4,1.6,1,2,1.8c0.5,0.8,0.7,1.6,0.7,2.5h-2.2c0-1-0.3-1.8-0.9-2.3s-1.5-0.9-2.7-0.9
					c-1.1,0-1.9,0.2-2.5,0.7c-0.6,0.5-0.9,1.1-0.9,2c0,0.7,0.3,1.2,0.8,1.7c0.6,0.5,1.5,0.9,2.9,1.3c1.4,0.4,2.4,0.8,3.2,1.3
					c0.8,0.5,1.3,1,1.7,1.6c0.4,0.6,0.6,1.3,0.6,2.2c0,1.3-0.5,2.4-1.5,3.2c-1,0.8-2.4,1.2-4.1,1.2c-1.1,0-2.2-0.2-3.1-0.6
					s-1.7-1-2.3-1.8c-0.5-0.7-0.8-1.6-0.8-2.5h2.2c0,1,0.4,1.8,1.1,2.3c0.7,0.6,1.7,0.9,2.9,0.9c1.1,0,2-0.2,2.6-0.7
					c0.6-0.5,0.9-1.1,0.9-1.9s-0.3-1.4-0.8-1.9C355.2-3.8,354.2-4.2,352.7-4.6z"/>
				<path class="st2" d="M382.1,2.7h-2.2l-8.2-12.6V2.7h-2.2v-16.4h2.2L379.9-1v-12.7h2.1V2.7z"/>
				<path class="st2" d="M396.3-4.9h-7.1v5.8h8.2v1.8h-10.4v-16.4h10.3v1.8h-8.1v5.3h7.1V-4.9z"/>
				<path class="st2" d="M412.8-11.9h-5.3V2.7h-2.1v-14.6h-5.2v-1.8h12.6V-11.9z"/>
				<path class="st2" d="M420.1-2.5l0.3,2.2l0.5-1.9l3.2-11.4h1.8l3.2,11.4l0.4,2l0.3-2.2l2.5-11.2h2.2l-4,16.4h-2l-3.4-11.9
					l-0.3-1.2l-0.3,1.2l-3.5,11.9h-2l-4-16.4h2.2L420.1-2.5z"/>
				<path class="st2" d="M450.7-5c0,1.6-0.3,3-0.8,4.2s-1.3,2.1-2.3,2.7s-2.1,0.9-3.5,0.9c-1.3,0-2.4-0.3-3.4-0.9s-1.8-1.5-2.3-2.7
					c-0.5-1.2-0.8-2.5-0.8-4.1V-6c0-1.6,0.3-3,0.8-4.2c0.5-1.2,1.3-2.1,2.3-2.8c1-0.6,2.1-1,3.4-1c1.3,0,2.5,0.3,3.5,0.9
					c1,0.6,1.8,1.5,2.3,2.8c0.5,1.2,0.8,2.6,0.8,4.2V-5z M448.5-6c0-1.9-0.4-3.4-1.2-4.5s-1.9-1.6-3.3-1.6c-1.4,0-2.4,0.5-3.2,1.6
					s-1.2,2.5-1.2,4.3V-5c0,1.9,0.4,3.4,1.2,4.4s1.9,1.6,3.3,1.6c1.4,0,2.5-0.5,3.2-1.5s1.2-2.5,1.2-4.4V-6z"/>
				<path class="st2" d="M461.1-3.9h-3.8v6.6H455v-16.4h5.4c1.8,0,3.3,0.4,4.3,1.3s1.5,2.1,1.5,3.7c0,1-0.3,1.9-0.8,2.7
					c-0.5,0.8-1.3,1.3-2.3,1.7l3.8,6.9v0.1h-2.3L461.1-3.9z M457.2-5.7h3.3c1.1,0,1.9-0.3,2.6-0.8c0.6-0.6,0.9-1.3,0.9-2.2
					c0-1-0.3-1.8-0.9-2.3s-1.5-0.8-2.6-0.8h-3.3V-5.7z"/>
				<path class="st2" d="M474.5-4.9l-2,2.1v5.5h-2.2v-16.4h2.2v8.1l7.3-8.1h2.6L476-6.5l6.9,9.1h-2.6L474.5-4.9z"/>
			</g>
			<g class="st3">
				<path class="st0" d="M492.8,2.7v-16.4h5.3c1.8,0,3.1,0.4,4,1.1c0.9,0.7,1.3,1.8,1.3,3.3c0,0.8-0.2,1.4-0.7,2
					c-0.4,0.6-1,1-1.8,1.4c0.9,0.2,1.6,0.7,2.1,1.4c0.5,0.7,0.8,1.5,0.8,2.5c0,1.5-0.5,2.6-1.4,3.5c-1,0.8-2.3,1.3-4,1.3H492.8z
					 M494.9-6.7h3.3c0.9,0,1.7-0.2,2.3-0.7c0.6-0.5,0.8-1.1,0.8-1.9c0-0.9-0.3-1.6-0.8-2c-0.5-0.4-1.3-0.6-2.4-0.6h-3.2V-6.7z
					 M494.9-5v5.9h3.6c1,0,1.8-0.3,2.4-0.8c0.6-0.5,0.9-1.2,0.9-2.2c0-2-1.1-3-3.2-3H494.9z"/>
				<path class="st0" d="M512.6-5.5l4.3-8.2h2.4l-5.6,10.3v6.1h-2.2v-6.1l-5.6-10.3h2.5L512.6-5.5z"/>
			</g>
			<g id="Group_2" transform="translate(324.661 6.549)">
				<g id="Rectangle_378">
					<rect x="211" y="-12.9" class="st0" width="0.3" height="7.5"/>
				</g>
				<g id="Rectangle_379">
					<rect x="218.7" y="-20.6" class="st0" width="0.3" height="15.3"/>
				</g>
				<g id="Path_932">
					<path class="st0" d="M203.6-5.4l15.2-15.3l0.2,0.2L203.8-5.2L203.6-5.4z"/>
				</g>
				<g id="Rectangle_381">
					<rect x="203.7" y="-5.5" class="st0" width="15.2" height="0.3"/>
				</g>
				<g id="Path_933">
					<path class="st0" d="M211.1-5.4l7.7-7.5l0.2,0.2l-7.7,7.5L211.1-5.4z"/>
				</g>
				<g id="Path_821">
					<path class="st0" d="M243-4.2c-0.6-1.8-1.3-3.5-1.9-5.1c-0.6-1.5-1.2-3-1.7-4.5s-1.1-2.8-1.6-4c-0.5-1.2-1.1-2.6-1.7-3.9
						l-0.1-0.1h-2.5l-0.1,0.2c-0.6,1.2-1.2,2.6-1.7,3.8c-0.5,1.3-1.1,2.7-1.6,4c-0.5,1.4-1.1,2.9-1.7,4.5s-1.2,3.3-1.9,5.1l-0.1,0.3
						h3l1.6-4.3h7.5c0.2,0.5,0.5,1.4,0.7,2c0.2,0.8,0.5,1.5,0.8,2.2l0.1,0.1h3.1L243-4.2z M237.5-10.6h-5.8c0.5-1.4,0.9-2.7,1.4-4
						c0.5-1.2,0.9-2.4,1.4-3.4c0.5,1.1,0.9,2.3,1.4,3.5C236.5-13.3,237.1-12.1,237.5-10.6z"/>
				</g>
				<g id="Rectangle_383">
					<rect x="244.8" y="-21.7" class="st0" width="2.9" height="17.9"/>
				</g>
				<g id="Path_822">
					<path class="st0" d="M263.3-4.2c-0.3-0.7-0.7-1.4-1.1-2.1c-0.4-0.7-0.9-1.4-1.3-2.1c-0.4-0.7-0.9-1.2-1.3-1.8
						c-0.3-0.4-0.6-0.8-0.8-1.1c1-0.4,1.8-1,2.5-1.8c0.7-0.9,1-2,0.9-3.1c0.1-1.7-0.6-3.3-2-4.3c-1.7-1.1-3.7-1.6-5.7-1.4
						c-0.7,0-1.5,0.1-2.3,0.1c-0.7,0.1-1.4,0.2-2.1,0.4v17.6h2.9v-6.8h2.8c0.3,0.4,0.6,0.8,1,1.2c0.4,0.5,0.8,1.1,1.2,1.7
						c0.4,0.6,0.8,1.2,1.2,1.8c0.4,0.6,0.8,1.2,1.1,1.9l0.1,0.1h3.2L263.3-4.2z M258.8-14.6c-0.2,0.4-0.5,0.7-0.9,0.9
						c-0.5,0.3-1,0.4-1.6,0.5c-0.6,0.1-1.4,0.2-2.2,0.2H253v-6.2c0.6-0.1,1.3-0.1,1.9-0.1c0.6,0,1.1,0,1.7,0.1
						c0.5,0.1,0.9,0.2,1.4,0.5c0.4,0.2,0.7,0.6,0.9,0.9c0.2,0.5,0.4,1,0.4,1.5C259.2-15.6,259.1-15.1,258.8-14.6z"/>
				</g>
				<g id="Path_823">
					<path class="st0" d="M281.2-4.2c-0.6-1.8-1.3-3.5-1.9-5.1c-0.6-1.5-1.2-3.1-1.7-4.5c-0.5-1.4-1.1-2.8-1.6-4
						c-0.5-1.2-1.1-2.6-1.7-3.9l-0.1-0.1h-2.5l-0.1,0.2c-0.6,1.2-1.2,2.6-1.7,3.8c-0.5,1.3-1.1,2.7-1.6,4s-1.1,2.9-1.7,4.5
						c-0.6,1.5-1.2,3.3-1.9,5.1l-0.1,0.3h3l1.6-4.3h7.5c0.2,0.5,0.5,1.4,0.7,2c0.2,0.8,0.5,1.4,0.8,2.2l0.1,0.1h3.1L281.2-4.2z
						 M275.7-10.6H270c0.5-1.4,0.9-2.7,1.4-4c0.5-1.2,0.9-2.4,1.4-3.4c0.5,1.1,0.9,2.3,1.4,3.5C274.7-13.3,275.2-12.1,275.7-10.6z"
						/>
				</g>
				<g id="Ellipse_212">
					<ellipse class="st0" cx="218.8" cy="-5.3" rx="1.7" ry="1.7"/>
				</g>
				<g id="Ellipse_213">
					<ellipse class="st0" cx="218.8" cy="-20.6" rx="1.7" ry="1.7"/>
				</g>
				<g id="Ellipse_214">
					<ellipse class="st0" cx="218.8" cy="-13" rx="1.7" ry="1.7"/>
				</g>
				<g id="Ellipse_215">
					<ellipse class="st0" cx="203.7" cy="-5.3" rx="1.7" ry="1.7"/>
				</g>
				<g id="Ellipse_216">
					<ellipse class="st0" cx="211.2" cy="-5.3" rx="1.7" ry="1.7"/>
				</g>
				<g id="Ellipse_217">
					<ellipse class="st0" cx="211.2" cy="-12.9" rx="1.7" ry="1.7"/>
				</g>
			</g>
		</g>
	</g>
</g>
</svg>
