<?xml version="1.0" encoding="utf-8"?><svg width="101" height="23.44" viewBox="0 0 101 23.44" xmlns="http://www.w3.org/2000/svg" xmlns:xlink="http://www.w3.org/1999/xlink"><svg viewBox="7739.251 2796.09 100.234 23.44" width="100.23" height="23.44" id="aira" xmlns="http://www.w3.org/2000/svg"><defs><style>.acls-1{fill:#fff}</style></defs><g id="aGroup_770" data-name="Group 770" transform="translate(7739.251 2796.09)"><path id="aRectangle_378" data-name="Rectangle 378" class="acls-1" transform="translate(11.385 11.832)" d="M0 0h.372v9.45H0z"/><path id="aRectangle_379" data-name="Rectangle 379" class="acls-1" transform="translate(21.133 2.158)" d="M0 0h.372v19.198H0z"/><path id="aRectangle_380" data-name="Rectangle 380" class="acls-1" transform="rotate(-45 26.572 8.198)" d="M0 0h27.086v.372H0z"/><path id="aRectangle_381" data-name="Rectangle 381" class="acls-1" transform="translate(2.158 21.133)" d="M0 0h19.198v.372H0z"/><path id="aRectangle_382" data-name="Rectangle 382" class="acls-1" transform="rotate(-44.21 31.762 -3.513)" d="M0 0h13.543v.372H0z"/><path id="aPath_821" data-name="Path 821" class="acls-1" d="M62.459 23.026c-.819-2.307-1.637-4.39-2.381-6.4-.744-1.935-1.488-3.8-2.158-5.581s-1.414-3.5-2.084-5.06-1.414-3.2-2.158-4.837L53.6 1h-3.2l-.074.223a136.02 136.02 0 0 0-2.158 4.762c-.67 1.637-1.414 3.349-2.084 5.06-.67 1.786-1.414 3.646-2.158 5.581s-1.488 4.093-2.381 6.4l-.145.374h3.8l2-5.434h9.45c.3.6.6 1.711.893 2.53.3.967.67 1.86 1.042 2.753l.074.149h3.944zm-6.92-8.111h-7.293a132.53 132.53 0 0 1 1.786-4.986c.6-1.488 1.191-2.976 1.786-4.316.6 1.414 1.191 2.9 1.786 4.39.669 1.564 1.339 3.126 1.934 4.912z" transform="translate(-10.593 -.256)"/><path id="aRectangle_383" data-name="Rectangle 383" class="acls-1" transform="translate(54.172 .744)" d="M0 0h3.646v22.398H0z"/><path id="aPath_822" data-name="Path 822" class="acls-1" d="M98.343 22.975a18.213 18.213 0 0 0-1.414-2.6c-.521-.893-1.116-1.786-1.637-2.6s-1.116-1.563-1.637-2.307c-.372-.521-.744-.967-1.042-1.339a7.052 7.052 0 0 0 3.125-2.232 6.144 6.144 0 0 0 1.191-3.869A6.29 6.29 0 0 0 94.4 2.586C92.762 1.4 90.306.8 87.181.8c-.893 0-1.86.074-2.9.074a14.371 14.371 0 0 0-2.679.446v22.027h3.646v-8.483h3.5c.372.446.819.967 1.265 1.563.521.67.967 1.339 1.488 2.084s.967 1.563 1.488 2.307a19.2 19.2 0 0 1 1.336 2.382l.074.149h4.018zM92.762 9.953a2.873 2.873 0 0 1-1.191 1.116 4.928 4.928 0 0 1-2.009.6c-.819.074-1.786.223-2.828.223H85.4V4.149a21.774 21.774 0 0 1 2.456-.074 19.658 19.658 0 0 1 2.158.149 5.8 5.8 0 0 1 1.711.6 2.873 2.873 0 0 1 1.116 1.191 3.625 3.625 0 0 1 .446 1.86 5.013 5.013 0 0 1-.525 2.078z" transform="translate(-20.879 -.205)"/><path id="aPath_823" data-name="Path 823" class="acls-1" d="M127.333 23.026c-.819-2.307-1.637-4.39-2.381-6.4-.744-1.935-1.488-3.869-2.158-5.581-.67-1.786-1.414-3.5-2.084-5.06s-1.414-3.2-2.158-4.837L118.4 1h-3.2l-.074.223a136.02 136.02 0 0 0-2.158 4.762c-.67 1.637-1.414 3.349-2.084 5.06s-1.414 3.646-2.158 5.581-1.488 4.093-2.381 6.4l-.149.372H110l2-5.432h9.45c.3.6.6 1.711.893 2.53.3.967.67 1.786 1.042 2.753l.074.149h3.944zm-6.92-8.111h-7.293a132.53 132.53 0 0 1 1.786-4.986c.6-1.488 1.191-2.976 1.786-4.316.6 1.414 1.191 2.9 1.786 4.39.67 1.564 1.265 3.126 1.935 4.912z" transform="translate(-27.174 -.256)"/><circle id="aEllipse_212" data-name="Ellipse 212" class="acls-1" cx="2.158" cy="2.158" r="2.158" transform="translate(19.124 19.124)"/><circle id="aEllipse_213" data-name="Ellipse 213" class="acls-1" cx="2.158" cy="2.158" r="2.158" transform="translate(19.124)"/><circle id="aEllipse_214" data-name="Ellipse 214" class="acls-1" cx="2.158" cy="2.158" r="2.158" transform="translate(19.124 9.525)"/><circle id="aEllipse_215" data-name="Ellipse 215" class="acls-1" cx="2.158" cy="2.158" r="2.158" transform="translate(0 19.124)"/><circle id="aEllipse_216" data-name="Ellipse 216" class="acls-1" cx="2.158" cy="2.158" r="2.158" transform="translate(9.525 19.124)"/><circle id="aEllipse_217" data-name="Ellipse 217" class="acls-1" cx="2.158" cy="2.158" r="2.158" transform="translate(9.525 9.674)"/></g></svg></svg>